<svg width="699" height="698" viewBox="0 0 699 698" fill="none" xmlns="http://www.w3.org/2000/svg">
<path fill-rule="evenodd" clip-rule="evenodd" d="M335.871 20.77C499.884 20.77 630.802 132.818 630.802 300.673C630.802 468.522 518.241 614.886 354.228 614.886C190.216 614.886 28.6167 489.506 28.6167 321.651C28.6167 153.8 171.858 20.77 335.871 20.77Z" fill="#71ACCF"/>
<path fill-rule="evenodd" clip-rule="evenodd" d="M461.315 44.153C459.477 45.7123 464.719 57.4989 469.213 62.2494C473.979 67.2961 483.851 70.7235 489.911 74.4317C495.153 77.6585 504.345 81.2886 505.434 84.5007C506.523 87.7128 500.123 91.4768 496.447 93.7043C491.545 96.7234 482.966 100.244 475.953 102.617C468.805 105.011 458.251 103.41 453.69 108.068C449.128 112.725 452.396 126.073 448.516 130.559C444.703 135.044 435.375 135.159 430.473 134.982C426.388 134.833 421.35 128.725 419.443 129.495C417.537 130.266 417.333 136.708 419.035 139.605C421.078 143.083 429.928 145.042 431.562 150.361C433.332 155.993 432.516 171.655 429.588 173.398C426.661 175.141 416.856 164.312 414.133 160.821C412.431 158.629 415.903 153.036 413.248 152.453C409.776 151.7 398.065 156.806 393.367 156.303C389.691 155.92 387.375 151.986 384.788 149.435C381.929 146.671 375.597 144.044 376.21 139.718C376.959 133.997 384.38 120.35 389.214 115.112C393.162 110.836 401.333 111.517 405.078 108.286C408.686 105.22 413.112 97.145 411.75 95.7257C410.456 94.3056 401.061 96.5458 397.112 99.7683C390.712 104.947 378.116 120.087 373.486 126.795C370.831 130.581 367.835 135.579 369.197 140.015C370.627 144.761 380.022 151.112 382.065 155.276C383.426 158.189 383.972 163.311 381.248 164.993C375.938 168.272 358.848 170.887 350.27 174.949C342.712 178.507 333.18 188.307 329.776 189.367C327.257 190.149 329.776 183.998 329.776 181.313V171.713C329.776 171.423 329.912 171.115 329.776 170.845C328.823 168.206 327.461 159.801 323.852 155.878C320.108 151.833 313.708 147.344 307.512 146.579C300.023 145.662 284.772 147.96 279.189 150.368C275.649 151.909 275.649 157.389 274.219 161.034C272.245 166.021 271.292 174.853 267.207 180.285C262.713 186.219 250.458 192.128 247.462 196.639C245.488 199.637 247.326 204.341 249.3 207.344C251.274 210.368 256.381 213.657 259.445 214.786C262.1 215.754 266.662 212.396 267.888 214.124C269.113 215.859 264.62 224.137 266.866 225.175C269.113 226.213 278.576 222.353 281.436 220.36C283.41 218.925 284.296 215.713 283.887 213.218C283.411 210.278 277.828 206.613 278.508 202.718C279.394 197.535 285.998 186.523 289.334 182.142C291.513 179.267 296.142 176.712 298.389 176.433C300.364 176.188 303.632 178.558 302.951 180.465C301.794 183.388 293.76 189.359 291.717 193.967C289.811 198.28 289.742 205.7 290.764 208.118C291.717 210.313 295.461 208.64 297.776 208.452C300.432 208.236 305.81 205.805 306.764 206.815C307.785 207.832 305.334 212.347 303.632 214.528C301.726 216.995 297.232 218.458 295.393 221.6C293.215 225.182 293.691 233.313 290.832 236.051C288.04 238.783 282.593 237.466 278.372 237.995C272.517 238.734 261.691 238.866 255.768 240.483C251.002 241.779 245.896 244.643 242.696 247.666C239.701 250.523 239.019 256.383 236.704 258.627C234.798 260.529 229.079 259.184 229.011 261.1C228.943 263.023 235.411 266.667 236.364 270.158C237.317 273.649 237.385 280.394 234.798 282.059C232.211 283.717 224.041 279.188 220.977 280.115C218.186 280.944 216.96 284.721 216.347 287.605C215.667 290.657 213.896 296.733 216.892 298.412C219.82 300.084 229.556 299.659 234.117 297.653C238.679 295.653 241.607 289.493 244.33 286.407C246.372 284.045 247.734 280.958 250.253 279.147C252.909 277.251 257.266 275.091 260.193 275.036C263.053 274.973 265.777 276.805 267.888 278.798C269.998 280.868 271.427 285.013 273.13 287.466C274.559 289.591 276.125 292.127 277.895 293.521C279.529 294.817 282.934 297.207 283.615 295.841C284.364 294.475 283.615 288.574 282.253 285.334C280.483 281.146 272.449 272.283 272.925 270.729C273.47 269.176 283.683 271.823 285.453 276.011C287.223 280.192 281.845 291.849 283.615 295.841C285.385 299.84 293.419 302.523 296.006 299.98C298.662 297.437 297.981 284.08 299.206 280.575C299.683 279.195 301.929 279.592 303.223 278.951C305.878 277.6 312.755 274.541 315.478 272.457C317.385 271.008 317.181 267.134 319.495 266.465C322.9 265.469 331.819 264.584 335.972 266.465C340.125 268.347 343.461 274.743 344.483 277.76C345.232 280.024 344.414 283.689 342.235 284.574C339.784 285.564 333.929 284.045 329.776 283.703C324.602 283.278 314.593 280.589 310.985 282.024C307.717 283.313 307.172 289.953 308.193 292.308C309.214 294.657 314.185 295.075 317.249 296.127C321.879 297.701 332.431 298.133 335.904 301.757C339.444 305.373 340.738 315.176 338.219 317.859C335.7 320.541 326.508 317.859 320.925 317.859H286.951C284.16 317.859 277.351 319.036 272.789 317.859C268.091 316.654 260.942 313.072 258.832 310.619C257.198 308.738 262.44 303.422 259.989 303.157C255.223 302.642 237.385 305.108 230.373 307.554C225.334 309.323 220.364 314.926 217.913 317.859C216.279 319.789 217.096 323.085 215.598 325.133C213.624 327.885 208.314 330.596 205.931 334.372C202.731 339.326 197.352 348.545 196.603 354.878C195.786 360.863 199.054 367.455 201.165 372.374C203.071 376.812 205.726 381.69 209.199 384.366C212.671 387.041 217.505 388.915 221.931 388.421C227.718 387.773 237.862 381.523 243.718 380.478C248.143 379.69 254.338 379.99 257.062 382.157C259.785 384.324 258.628 389.905 260.193 393.493C261.828 397.291 265.981 401.255 267.07 404.941C268.024 408.341 265.641 413.26 266.73 415.595C267.819 417.929 271.7 417.26 273.606 418.946C275.717 420.772 278.917 423.405 279.326 426.576C279.802 430.283 275.377 436.337 276.466 441.173C277.76 447.026 284.977 454.453 287.292 461.679C289.538 468.911 289.538 479.739 290.219 484.554C290.491 486.553 289.062 490.72 291.036 490.539C295.462 490.142 310.1 487.745 316.499 482.164C322.968 476.59 327.597 463.504 329.776 457.073C331.274 452.823 328.074 447.723 329.776 443.57C332.023 438.156 341.555 431.244 342.985 424.618C344.346 417.991 336.244 410.202 338.082 403.819C339.921 397.437 349.997 390.525 354.014 386.316C356.602 383.606 364.091 381.767 362.116 378.561C359.869 374.834 345.231 371.273 340.329 363.936C334.95 355.909 333.044 336.888 329.776 330.387C328.21 327.258 320.585 326.039 320.993 324.931C321.402 323.823 329.163 321.796 332.295 323.733C335.495 325.67 337.538 332.198 339.921 336.553C342.44 341.173 344.891 347.061 347.478 351.422C349.793 355.38 352.108 361.219 355.308 362.717C358.576 364.215 363.478 362.494 366.746 360.404C370.967 357.735 378.252 349.868 380.635 346.691C381.725 345.27 382.542 342.518 381.248 341.333C378.321 338.755 367.223 334.115 363.274 331.202C360.755 329.356 358.099 326.081 357.35 323.858C356.669 321.907 356.874 318.382 358.78 317.859C360.687 317.329 365.656 319.35 368.925 320.716C373.69 322.75 381.657 328.464 387.716 330.059C393.435 331.557 399.699 328.84 405.486 330.282C411.341 331.766 419.579 334.407 423.052 338.95C426.524 343.486 425.435 351.562 426.388 357.512C427.341 363.226 426.728 371.252 429.043 374.68C431.29 377.983 438.167 380.68 440.345 378.102C442.524 375.53 440.005 365.218 442.048 359.247C444.09 353.136 448.516 345.632 452.737 341.396C456.618 337.48 462.337 333.083 467.375 333.843C472.413 334.609 479.221 340.81 482.966 345.98C486.711 351.157 485.281 360.069 489.843 364.891C494.609 369.901 507.749 377.551 511.494 376.025C515.238 374.506 513.264 361.414 512.379 355.742C511.698 350.795 503.664 345.13 506.591 341.988C509.451 338.839 523.885 338.016 529.672 336.881C533.553 336.121 538.932 338.316 541.451 335.167C543.97 331.996 544.447 323.224 544.855 317.859C545.195 312.898 544.106 307.93 543.902 302.955C543.697 297.583 541.451 288.023 543.493 285.633C545.468 283.236 553.093 286.149 555.885 288.588C558.676 291.033 557.995 297.297 560.174 300.286C562.285 303.213 565.484 305.909 568.957 306.529C572.429 307.157 581.28 308.216 581.076 304.021C580.804 299.785 566.914 286.511 567.527 281.083C568.14 275.656 580.191 274.785 584.821 271.461C588.77 268.604 593.059 265.26 595.374 261.156C597.757 257.045 599.118 250.314 598.982 246.823C598.846 244.106 596.054 242.267 594.284 240.19C591.765 237.069 582.71 231.85 583.527 228.115C584.344 224.374 595.17 221.51 599.119 217.754C602.659 214.403 605.178 208.961 607.289 205.575C608.923 202.948 612.531 200.452 611.782 197.434C610.08 190.554 602.999 174.895 597.28 164.297C590.676 152.063 582.301 136.165 572.293 124.032C561.672 111.257 547.715 98.4173 533.757 87.6487C518.438 75.7925 492.294 60.1452 480.175 52.8953C474.251 49.3174 463.154 42.5943 461.315 44.153Z" fill="#9EC991" stroke="#BCBCBC" stroke-width="0.00251875" stroke-miterlimit="1.5" stroke-linecap="round" stroke-linejoin="round"/>
<path fill-rule="evenodd" clip-rule="evenodd" d="M518.951 493.903C518.611 489.667 520.517 478.742 521.266 471.558C521.947 464.639 519.564 455.358 523.376 450.801C527.189 446.244 537.334 446.767 544.142 444.231C551.836 441.36 563.478 435.674 569.47 433.612C572.942 432.448 576.551 431.661 580.159 431.877C584.108 432.121 590.985 437.284 593.368 435.075C595.819 432.866 597.998 422.979 594.73 418.631C591.189 413.998 575.121 410.667 572.397 407.295C570.15 404.564 574.644 398.669 578.117 398.383C582.474 398.014 592.959 403.1 598.542 405.093C603.036 406.689 611.478 405.483 611.886 410.34C612.431 416.604 605.895 432.184 601.742 442.663C597.18 454.062 589.623 469.948 584.652 478.714C581.18 484.776 575.666 493.945 571.921 495.234C568.177 496.516 566.474 487.11 562.253 486.434C557.351 485.661 549.113 488.845 542.713 490.594C536.245 492.35 527.462 496.412 523.513 496.962C521.743 497.213 519.155 495.75 518.951 493.903Z" fill="#9EC991" stroke="#BCBCBC" stroke-width="0.00251875" stroke-miterlimit="1.5" stroke-linecap="round" stroke-linejoin="round"/>
<path fill-rule="evenodd" clip-rule="evenodd" d="M34.8571 386.279C37.0358 382.252 45.8184 374.796 52.9673 374.253C61.6821 373.591 77.4098 378.287 87.1458 382.314C96.133 386.014 104.371 395.734 111.656 398.417C117.648 400.625 125.273 396.905 130.72 398.417C135.962 399.866 141.001 403.127 144.337 407.503C148.49 413.014 157.818 423.668 155.707 431.492C153.596 439.324 135.486 446.995 131.741 454.472C128.473 460.98 135.077 469.292 133.239 476.357C130.924 485.387 121.324 502.214 117.58 508.659C116.082 511.314 113.359 516.979 111.044 515.028C104.508 509.579 87.8948 489.247 78.6353 475.981C69.7162 463.244 61.8868 448.368 55.4187 435.443C49.4954 423.486 43.3677 406.611 39.9634 398.417C38.2613 394.368 32.8146 390.139 34.8571 386.279Z" fill="#9EC991" stroke="#BCBCBC" stroke-width="0.00251875" stroke-miterlimit="1.5" stroke-linecap="round" stroke-linejoin="round"/>
<path fill-rule="evenodd" clip-rule="evenodd" d="M95.5039 138.21C94.4826 140.692 98.8397 142.947 101.359 143.591C104.491 144.375 112.729 141.08 114.159 142.91C115.588 144.741 111.572 151.312 109.938 154.576C108.44 157.505 104.423 159.207 104.082 162.493C103.538 167.265 105.58 179.328 106.601 183.21C106.942 184.612 109.801 184.361 110.006 185.79C110.346 187.847 107.351 192.514 108.576 195.549C110.21 199.596 117.154 207.633 119.946 210.071C121.239 211.214 124.439 211.806 125.052 210.19C126.686 206.177 126.006 192.34 129.546 185.99C133.155 179.641 141.052 175.956 146.499 172.092C151.469 168.568 157.528 166.762 162.158 162.802C167.196 158.461 175.571 151.711 176.865 146.046C178.158 140.381 169.239 133.155 169.988 128.814C170.737 124.473 178.771 124.065 181.358 120.002C184.013 115.93 186.669 108.504 185.784 104.38C184.899 100.256 174.754 99.603 175.98 95.2601C177.75 88.886 191.979 72.9962 196.473 66.1345C198.992 62.3245 202.396 56.5288 203.009 54.0901C203.281 52.8095 201.239 50.995 200.081 51.5002C195.043 53.6386 181.426 61.0543 172.711 66.9211C162.771 73.6226 150.584 83.4164 140.507 91.7107C130.908 99.6776 120.014 108.938 112.456 116.688C106.125 123.239 97.3421 133.727 95.5039 138.21Z" fill="#9EC991" stroke="#BCBCBC" stroke-width="0.00251875" stroke-miterlimit="1.5" stroke-linecap="round" stroke-linejoin="round"/>
<path fill-rule="evenodd" clip-rule="evenodd" d="M28.2711 334.702C30.5179 333.65 36.2373 312.482 42.1606 305.549C47.6755 299.16 58.7051 297.397 63.9477 293.133C68.1689 289.712 73.4117 284.291 73.7521 279.978C74.0244 275.672 66.4665 271.665 65.7176 267.276C64.9687 262.893 66.3988 256.629 69.1903 253.654C71.9137 250.679 78.0409 251.076 82.3983 249.417C86.7557 247.752 94.8583 247.508 95.1987 243.662C95.6072 239.816 88.594 230.807 84.7812 226.34C81.3089 222.341 75.9303 219.394 72.1856 216.864C69.0537 214.739 63.8793 214.356 62.3134 211.179C60.7474 208.009 64.0157 200.271 62.9264 197.83C61.9051 195.573 57.0711 194.456 55.7775 196.539C52.5775 201.563 47.1311 217.269 43.7949 227.978C39.846 240.68 34.5349 258.761 32.0158 272.738C29.7009 285.608 29.2243 301.522 28.6115 311.855C28.135 319.457 26.0243 335.754 28.2711 334.702Z" fill="#9EC991" stroke="#BCBCBC" stroke-width="0.00251875" stroke-miterlimit="1.5" stroke-linecap="round" stroke-linejoin="round"/>
<path fill-rule="evenodd" clip-rule="evenodd" d="M274.806 73.3958C272.287 73.8111 264.526 72.0197 263.164 74.0856C261.87 76.1515 265.138 82.9931 266.84 85.7906C268.27 88.145 272.832 88.1436 273.24 90.8707C273.717 93.8194 268.202 102.24 269.632 103.483C271.13 104.727 279.368 100.359 281.955 98.3317C283.997 96.7626 283.044 91.8915 285.223 91.3174C287.333 90.7425 292.712 95.8122 294.755 94.8848C296.797 93.9567 298.023 88.1254 297.478 85.7522C296.933 83.3797 291.283 82.127 291.555 80.6464C291.828 79.1664 298.159 78.7978 299.112 76.8706C300.134 74.9433 299.249 70.8902 297.342 69.0821C295.232 67.1172 289.853 64.6611 286.653 65.0799C283.453 65.4993 280.048 70.2102 278.074 71.596C277.053 72.3172 276.032 73.1916 274.806 73.3958Z" fill="#9EC991" stroke="#BCBCBC" stroke-width="0.00251875" stroke-miterlimit="1.5" stroke-linecap="round" stroke-linejoin="round"/>
<path fill-rule="evenodd" clip-rule="evenodd" d="M537.085 379.196C534.089 380.269 529.323 386.505 526.26 388.77C523.945 390.47 519.927 390.191 518.702 392.769C517.408 395.347 516.115 401.507 518.702 404.231C521.221 406.948 529.527 410.864 533.817 409.081C538.106 407.297 542.668 397.981 544.438 393.529C545.8 390.073 545.595 384.735 544.37 382.346C543.144 379.963 539.604 378.318 537.085 379.196Z" fill="#9EC991" stroke="#BCBCBC" stroke-width="0.00251875" stroke-miterlimit="1.5" stroke-linecap="round" stroke-linejoin="round"/>
<path fill-rule="evenodd" clip-rule="evenodd" d="M481.703 383.48C484.767 385.292 493.55 393.674 498.452 397.98C502.81 401.749 508.052 406.271 511.388 409.33C513.908 411.588 515.473 415.371 518.673 416.326C524.324 418.026 540.869 418.318 545.362 419.524C546.588 419.872 546.656 423.572 545.362 423.586C539.371 423.642 518.81 423.231 509.55 419.886C501.516 416.988 494.571 408.975 489.669 403.505C485.38 398.802 481.227 390.42 479.865 387.082C479.388 385.828 480.546 382.804 481.703 383.48Z" fill="#9EC991" stroke="#BCBCBC" stroke-width="0.00251875" stroke-miterlimit="1.5" stroke-linecap="round" stroke-linejoin="round"/>
<path fill-rule="evenodd" clip-rule="evenodd" d="M363.556 430.062C362.535 429.749 362.194 431.762 361.445 432.564C358.654 435.518 346.127 442.778 347.012 447.746C347.829 452.721 362.944 464.559 366.62 462.399C370.229 460.239 369.411 440.172 368.935 434.786C368.662 432.389 364.85 430.431 363.556 430.062Z" fill="#9EC991" stroke="#BCBCBC" stroke-width="0.00251875" stroke-miterlimit="1.5" stroke-linecap="round" stroke-linejoin="round"/>
<path fill-rule="evenodd" clip-rule="evenodd" d="M440.27 584.602C442.419 582.596 442.534 579.225 440.529 577.078L381.245 513.593C379.239 511.445 375.868 511.33 373.719 513.336L281.889 599.09C279.743 601.095 279.626 604.467 281.632 606.616L340.916 670.1C342.921 672.247 346.294 672.361 348.441 670.356L440.27 584.602Z" fill="#F2EFEA"/>
<path fill-rule="evenodd" clip-rule="evenodd" d="M309.891 445.133C312.04 443.127 315.411 443.243 317.416 445.389L376.7 508.874C378.706 511.022 378.591 514.394 376.442 516.4L284.613 602.154C282.466 604.159 279.093 604.045 277.087 601.896L217.803 538.412C215.798 536.265 215.915 532.892 218.061 530.887L309.891 445.133Z" fill="#F2EFEA"/>
<path fill-rule="evenodd" clip-rule="evenodd" d="M380.011 513.104C380.187 512.94 380.196 512.664 380.032 512.488L375.183 507.296C375.019 507.12 374.743 507.111 374.568 507.275L275.591 599.703C275.416 599.866 275.406 600.142 275.571 600.318L280.42 605.511C280.583 605.686 280.859 605.695 281.035 605.532L380.011 513.104Z" fill="#C9BFB5"/>
<path fill-rule="evenodd" clip-rule="evenodd" d="M385.459 518.892C385.635 518.728 385.644 518.452 385.48 518.276L380.631 513.084C380.467 512.908 380.191 512.899 380.016 513.063L281.039 605.491C280.864 605.655 280.854 605.93 281.018 606.106L285.867 611.299C286.031 611.474 286.307 611.484 286.483 611.32L385.459 518.892Z" fill="#C9BFB5"/>
<path fill-rule="evenodd" clip-rule="evenodd" d="M388.937 522.327C389.046 522.226 389.052 522.056 388.951 521.948L385.965 518.75C385.864 518.642 385.694 518.637 385.585 518.738L279.13 618.149C279.022 618.25 279.016 618.42 279.117 618.529L282.103 621.726C282.204 621.834 282.374 621.84 282.483 621.739L388.937 522.327Z" fill="#6AB8BB"/>
<path fill-rule="evenodd" clip-rule="evenodd" d="M292.582 618.683C292.69 618.582 292.696 618.412 292.595 618.304L289.609 615.106C289.508 614.998 289.338 614.992 289.23 615.093L282.387 621.484C282.278 621.585 282.272 621.755 282.374 621.863L285.36 625.06C285.461 625.169 285.63 625.174 285.739 625.073L292.582 618.683Z" fill="#A69D8D"/>
<path fill-rule="evenodd" clip-rule="evenodd" d="M649.585 557.776C654.698 557.776 658.848 553.626 658.848 548.516V397.413C658.848 392.299 654.698 388.15 649.585 388.15H397.431C392.319 388.15 388.168 392.299 388.168 397.413V548.516C388.168 553.626 392.319 557.776 397.431 557.776H649.585Z" fill="#E2D3C6" stroke="#D8D8D8" stroke-width="0.000752971" stroke-miterlimit="1.5" stroke-linecap="round" stroke-linejoin="round"/>
<path fill-rule="evenodd" clip-rule="evenodd" d="M576.762 493.87C576.762 491.708 575.007 489.954 572.844 489.954H469.032C466.869 489.954 465.114 491.708 465.114 493.87V545.818C465.114 547.979 466.869 549.737 469.032 549.737H572.844C575.007 549.737 576.762 547.979 576.762 545.818V493.87Z" fill="#DBDBDB" stroke="#BABABA" stroke-width="0.000577044" stroke-miterlimit="1.5" stroke-linecap="round" stroke-linejoin="round"/>
<path fill-rule="evenodd" clip-rule="evenodd" d="M428.199 466.351C428.199 466.036 427.943 465.78 427.627 465.78H410.869C410.553 465.78 410.296 466.036 410.296 466.351V478.558C410.296 478.875 410.553 479.131 410.869 479.131H427.627C427.943 479.131 428.199 478.875 428.199 478.558V466.351Z" fill="#C9BFB5"/>
<path fill-rule="evenodd" clip-rule="evenodd" d="M428.199 451.711C428.199 451.395 427.943 451.139 427.627 451.139H410.869C410.553 451.139 410.296 451.395 410.296 451.711V463.918C410.296 464.234 410.553 464.49 410.869 464.49H427.627C427.943 464.49 428.199 464.234 428.199 463.918V451.711Z" fill="#C9BFB5"/>
<path fill-rule="evenodd" clip-rule="evenodd" d="M435.737 435.708C435.737 435.393 435.481 435.137 435.165 435.137H410.869C410.553 435.137 410.296 435.393 410.296 435.708V447.915C410.296 448.231 410.553 448.488 410.869 448.488H435.165C435.481 448.488 435.737 448.231 435.737 447.915V435.708Z" fill="#C9BFB5"/>
<path fill-rule="evenodd" clip-rule="evenodd" d="M435.737 420.045C435.737 419.73 435.481 419.474 435.165 419.474H410.869C410.553 419.474 410.296 419.73 410.296 420.045V432.252C410.296 432.568 410.553 432.824 410.869 432.824H435.165C435.481 432.824 435.737 432.568 435.737 432.252V420.045Z" fill="#C9BFB5"/>
<path fill-rule="evenodd" clip-rule="evenodd" d="M423.017 404.698C423.017 404.397 422.773 404.153 422.472 404.153H410.842C410.541 404.153 410.296 404.397 410.296 404.698V416.959C410.296 417.259 410.541 417.504 410.842 417.504H422.472C422.773 417.504 423.017 417.259 423.017 416.959V404.698Z" fill="#C9BFB5"/>
<path fill-rule="evenodd" clip-rule="evenodd" d="M439.02 404.698C439.02 404.397 438.775 404.153 438.475 404.153H426.845C426.544 404.153 426.299 404.397 426.299 404.698V416.959C426.299 417.259 426.544 417.504 426.845 417.504H438.475C438.775 417.504 439.02 417.259 439.02 416.959V404.698Z" fill="#C9BFB5"/>
<path fill-rule="evenodd" clip-rule="evenodd" d="M456.043 404.698C456.043 404.397 455.799 404.153 455.498 404.153H443.869C443.568 404.153 443.323 404.397 443.323 404.698V416.959C443.323 417.259 443.568 417.504 443.869 417.504H455.498C455.799 417.504 456.043 417.259 456.043 416.959V404.698Z" fill="#C9BFB5"/>
<path fill-rule="evenodd" clip-rule="evenodd" d="M471.706 404.698C471.706 404.397 471.461 404.153 471.161 404.153H459.531C459.23 404.153 458.985 404.397 458.985 404.698V416.959C458.985 417.259 459.23 417.504 459.531 417.504H471.161C471.461 417.504 471.706 417.259 471.706 416.959V404.698Z" fill="#C9BFB5"/>
<path fill-rule="evenodd" clip-rule="evenodd" d="M488.048 404.698C488.048 404.397 487.804 404.153 487.503 404.153H475.874C475.573 404.153 475.328 404.397 475.328 404.698V416.959C475.328 417.259 475.573 417.504 475.874 417.504H487.503C487.804 417.504 488.048 417.259 488.048 416.959V404.698Z" fill="#C9BFB5"/>
<path fill-rule="evenodd" clip-rule="evenodd" d="M503.03 404.698C503.03 404.397 502.786 404.153 502.485 404.153H490.856C490.555 404.153 490.31 404.397 490.31 404.698V416.959C490.31 417.259 490.555 417.504 490.856 417.504H502.485C502.786 417.504 503.03 417.259 503.03 416.959V404.698Z" fill="#C9BFB5"/>
<path fill-rule="evenodd" clip-rule="evenodd" d="M517.33 404.698C517.33 404.397 517.086 404.153 516.785 404.153H505.155C504.854 404.153 504.61 404.397 504.61 404.698V416.959C504.61 417.259 504.854 417.504 505.155 417.504H516.785C517.086 417.504 517.33 417.259 517.33 416.959V404.698Z" fill="#C9BFB5"/>
<path fill-rule="evenodd" clip-rule="evenodd" d="M533.673 404.698C533.673 404.397 533.429 404.153 533.128 404.153H521.498C521.197 404.153 520.953 404.397 520.953 404.698V416.959C520.953 417.259 521.197 417.504 521.498 417.504H533.128C533.429 417.504 533.673 417.259 533.673 416.959V404.698Z" fill="#C9BFB5"/>
<path fill-rule="evenodd" clip-rule="evenodd" d="M549.336 404.698C549.336 404.397 549.092 404.153 548.791 404.153H537.161C536.86 404.153 536.616 404.397 536.616 404.698V416.959C536.616 417.259 536.86 417.504 537.161 417.504H548.791C549.092 417.504 549.336 417.259 549.336 416.959V404.698Z" fill="#C9BFB5"/>
<path fill-rule="evenodd" clip-rule="evenodd" d="M564.657 404.698C564.657 404.397 564.413 404.153 564.112 404.153H552.482C552.182 404.153 551.937 404.397 551.937 404.698V416.959C551.937 417.259 552.182 417.504 552.482 417.504H564.112C564.413 417.504 564.657 417.259 564.657 416.959V404.698Z" fill="#C9BFB5"/>
<path fill-rule="evenodd" clip-rule="evenodd" d="M580.66 404.698C580.66 404.397 580.416 404.153 580.115 404.153H568.485C568.184 404.153 567.939 404.397 567.939 404.698V416.959C567.939 417.259 568.184 417.504 568.485 417.504H580.115C580.416 417.504 580.66 417.259 580.66 416.959V404.698Z" fill="#C9BFB5"/>
<path fill-rule="evenodd" clip-rule="evenodd" d="M595.981 404.698C595.981 404.397 595.737 404.153 595.436 404.153H583.806C583.505 404.153 583.261 404.397 583.261 404.698V416.959C583.261 417.259 583.505 417.504 583.806 417.504H595.436C595.737 417.504 595.981 417.259 595.981 416.959V404.698Z" fill="#C9BFB5"/>
<path fill-rule="evenodd" clip-rule="evenodd" d="M609.601 404.698C609.601 404.397 609.356 404.153 609.056 404.153H597.426C597.125 404.153 596.88 404.397 596.88 404.698V416.959C596.88 417.259 597.125 417.504 597.426 417.504H609.056C609.356 417.504 609.601 417.259 609.601 416.959V404.698Z" fill="#C9BFB5"/>
<path fill-rule="evenodd" clip-rule="evenodd" d="M638.324 404.724C638.324 404.409 638.067 404.153 637.752 404.153H613.456C613.14 404.153 612.883 404.409 612.883 404.724V416.931C612.883 417.248 613.14 417.504 613.456 417.504H637.752C638.067 417.504 638.324 417.248 638.324 416.931V404.724Z" fill="#C9BFB5"/>
<path fill-rule="evenodd" clip-rule="evenodd" d="M638.263 419.365C638.263 419.05 638.008 418.793 637.692 418.793H606.646C606.33 418.793 606.073 419.05 606.073 419.365V431.572C606.073 431.888 606.33 432.144 606.646 432.144H637.692C638.008 432.144 638.263 431.888 638.263 431.572V419.365Z" fill="#C9BFB5"/>
<path fill-rule="evenodd" clip-rule="evenodd" d="M638.263 449.668C638.263 449.352 638.008 449.096 637.692 449.096H606.646C606.33 449.096 606.073 449.352 606.073 449.668V461.875C606.073 462.191 606.33 462.447 606.646 462.447H637.692C638.008 462.447 638.263 462.191 638.263 461.875V449.668Z" fill="#C9BFB5"/>
<path fill-rule="evenodd" clip-rule="evenodd" d="M638.457 465.835C638.457 465.616 638.28 465.439 638.062 465.439H629.622C629.404 465.439 629.226 465.616 629.226 465.835V478.395C629.226 478.613 629.404 478.79 629.622 478.79H638.062C638.28 478.79 638.457 478.613 638.457 478.395V465.835Z" fill="#C9BFB5"/>
<path fill-rule="evenodd" clip-rule="evenodd" d="M441.659 466.175C441.659 465.957 441.482 465.78 441.263 465.78H432.824C432.605 465.78 432.428 465.957 432.428 466.175V478.735C432.428 478.954 432.605 479.131 432.824 479.131H441.263C441.482 479.131 441.659 478.954 441.659 478.735V466.175Z" fill="#C9BFB5"/>
<path fill-rule="evenodd" clip-rule="evenodd" d="M459.138 466.297C459.138 466.012 458.906 465.78 458.621 465.78H447.586C447.3 465.78 447.068 466.012 447.068 466.297V478.614C447.068 478.9 447.3 479.131 447.586 479.131H458.621C458.906 479.131 459.138 478.9 459.138 478.614V466.297Z" fill="#C9BFB5"/>
<path fill-rule="evenodd" clip-rule="evenodd" d="M474.12 466.297C474.12 466.012 473.888 465.78 473.603 465.78H462.568C462.282 465.78 462.05 466.012 462.05 466.297V478.614C462.05 478.9 462.282 479.131 462.568 479.131H473.603C473.888 479.131 474.12 478.9 474.12 478.614V466.297Z" fill="#C9BFB5"/>
<path fill-rule="evenodd" clip-rule="evenodd" d="M474.12 450.635C474.12 450.349 473.888 450.118 473.603 450.118H462.568C462.282 450.118 462.05 450.349 462.05 450.635V462.951C462.05 463.237 462.282 463.468 462.568 463.468H473.603C473.888 463.468 474.12 463.237 474.12 462.951V450.635Z" fill="#C9BFB5"/>
<path fill-rule="evenodd" clip-rule="evenodd" d="M458.457 450.635C458.457 450.349 458.225 450.118 457.94 450.118H446.905C446.62 450.118 446.388 450.349 446.388 450.635V462.951C446.388 463.237 446.62 463.468 446.905 463.468H457.94C458.225 463.468 458.457 463.237 458.457 462.951V450.635Z" fill="#C9BFB5"/>
<path fill-rule="evenodd" clip-rule="evenodd" d="M443.476 450.635C443.476 450.349 443.244 450.118 442.959 450.118H431.924C431.638 450.118 431.406 450.349 431.406 450.635V462.951C431.406 463.237 431.638 463.468 431.924 463.468H442.959C443.244 463.468 443.476 463.237 443.476 462.951V450.635Z" fill="#C9BFB5"/>
<path fill-rule="evenodd" clip-rule="evenodd" d="M490.803 450.635C490.803 450.349 490.571 450.118 490.286 450.118H479.251C478.965 450.118 478.733 450.349 478.733 450.635V462.951C478.733 463.237 478.965 463.468 479.251 463.468H490.286C490.571 463.468 490.803 463.237 490.803 462.951V450.635Z" fill="#C9BFB5"/>
<path fill-rule="evenodd" clip-rule="evenodd" d="M505.103 450.635C505.103 450.349 504.871 450.118 504.586 450.118H493.551C493.265 450.118 493.033 450.349 493.033 450.635V462.951C493.033 463.237 493.265 463.468 493.551 463.468H504.586C504.871 463.468 505.103 463.237 505.103 462.951V450.635Z" fill="#C9BFB5"/>
<path fill-rule="evenodd" clip-rule="evenodd" d="M499.315 435.994C499.315 435.708 499.083 435.477 498.798 435.477H487.763C487.478 435.477 487.246 435.708 487.246 435.994V448.31C487.246 448.596 487.478 448.827 487.763 448.827H498.798C499.083 448.827 499.315 448.596 499.315 448.31V435.994Z" fill="#C9BFB5"/>
<path fill-rule="evenodd" clip-rule="evenodd" d="M482.291 435.994C482.291 435.708 482.059 435.477 481.773 435.477H470.739C470.453 435.477 470.221 435.708 470.221 435.994V448.31C470.221 448.596 470.453 448.827 470.739 448.827H481.773C482.059 448.827 482.291 448.596 482.291 448.31V435.994Z" fill="#C9BFB5"/>
<path fill-rule="evenodd" clip-rule="evenodd" d="M466.628 435.994C466.628 435.708 466.397 435.477 466.111 435.477H455.077C454.791 435.477 454.559 435.708 454.559 435.994V448.31C454.559 448.596 454.791 448.827 455.077 448.827H466.111C466.397 448.827 466.628 448.596 466.628 448.31V435.994Z" fill="#C9BFB5"/>
<path fill-rule="evenodd" clip-rule="evenodd" d="M451.307 435.994C451.307 435.708 451.075 435.477 450.79 435.477H439.755C439.469 435.477 439.237 435.708 439.237 435.994V448.31C439.237 448.596 439.469 448.827 439.755 448.827H450.79C451.075 448.827 451.307 448.596 451.307 448.31V435.994Z" fill="#C9BFB5"/>
<path fill-rule="evenodd" clip-rule="evenodd" d="M451.307 419.31C451.307 419.025 451.075 418.793 450.79 418.793H439.755C439.469 418.793 439.237 419.025 439.237 419.31V431.627C439.237 431.913 439.469 432.144 439.755 432.144H450.79C451.075 432.144 451.307 431.913 451.307 431.627V419.31Z" fill="#C9BFB5"/>
<path fill-rule="evenodd" clip-rule="evenodd" d="M467.649 419.31C467.649 419.025 467.418 418.793 467.132 418.793H456.098C455.812 418.793 455.58 419.025 455.58 419.31V431.627C455.58 431.913 455.812 432.144 456.098 432.144H467.132C467.418 432.144 467.649 431.913 467.649 431.627V419.31Z" fill="#C9BFB5"/>
<path fill-rule="evenodd" clip-rule="evenodd" d="M484.674 419.31C484.674 419.025 484.443 418.793 484.157 418.793H473.123C472.837 418.793 472.605 419.025 472.605 419.31V431.627C472.605 431.913 472.837 432.144 473.123 432.144H484.157C484.443 432.144 484.674 431.913 484.674 431.627V419.31Z" fill="#C9BFB5"/>
<path fill-rule="evenodd" clip-rule="evenodd" d="M501.698 419.31C501.698 419.025 501.467 418.793 501.181 418.793H490.146C489.861 418.793 489.629 419.025 489.629 419.31V431.627C489.629 431.913 489.861 432.144 490.146 432.144H501.181C501.467 432.144 501.698 431.913 501.698 431.627V419.31Z" fill="#C9BFB5"/>
<path fill-rule="evenodd" clip-rule="evenodd" d="M519.063 419.31C519.063 419.025 518.831 418.793 518.546 418.793H507.511C507.226 418.793 506.994 419.025 506.994 419.31V431.627C506.994 431.913 507.226 432.144 507.511 432.144H518.546C518.831 432.144 519.063 431.913 519.063 431.627V419.31Z" fill="#C9BFB5"/>
<path fill-rule="evenodd" clip-rule="evenodd" d="M535.746 419.31C535.746 419.025 535.515 418.793 535.229 418.793H524.194C523.909 418.793 523.677 419.025 523.677 419.31V431.627C523.677 431.913 523.909 432.144 524.194 432.144H535.229C535.515 432.144 535.746 431.913 535.746 431.627V419.31Z" fill="#C9BFB5"/>
<path fill-rule="evenodd" clip-rule="evenodd" d="M552.771 419.31C552.771 419.025 552.539 418.793 552.253 418.793H541.219C540.933 418.793 540.701 419.025 540.701 419.31V431.627C540.701 431.913 540.933 432.144 541.219 432.144H552.253C552.539 432.144 552.771 431.913 552.771 431.627V419.31Z" fill="#C9BFB5"/>
<path fill-rule="evenodd" clip-rule="evenodd" d="M569.795 419.31C569.795 419.025 569.563 418.793 569.277 418.793H558.243C557.957 418.793 557.725 419.025 557.725 419.31V431.627C557.725 431.913 557.957 432.144 558.243 432.144H569.277C569.563 432.144 569.795 431.913 569.795 431.627V419.31Z" fill="#C9BFB5"/>
<path fill-rule="evenodd" clip-rule="evenodd" d="M587.159 419.31C587.159 419.025 586.928 418.793 586.642 418.793H575.607C575.322 418.793 575.09 419.025 575.09 419.31V431.627C575.09 431.913 575.322 432.144 575.607 432.144H586.642C586.928 432.144 587.159 431.913 587.159 431.627V419.31Z" fill="#C9BFB5"/>
<path fill-rule="evenodd" clip-rule="evenodd" d="M602.821 419.31C602.821 419.025 602.59 418.793 602.304 418.793H591.269C590.984 418.793 590.752 419.025 590.752 419.31V431.627C590.752 431.913 590.984 432.144 591.269 432.144H602.304C602.59 432.144 602.821 431.913 602.821 431.627V419.31Z" fill="#C9BFB5"/>
<path fill-rule="evenodd" clip-rule="evenodd" d="M602.821 434.632C602.821 434.347 602.59 434.115 602.304 434.115H591.269C590.984 434.115 590.752 434.347 590.752 434.632V446.949C590.752 447.234 590.984 447.466 591.269 447.466H602.304C602.59 447.466 602.821 447.234 602.821 446.949V434.632Z" fill="#C9BFB5"/>
<path fill-rule="evenodd" clip-rule="evenodd" d="M620.186 434.632C620.186 434.347 619.954 434.115 619.669 434.115H608.634C608.348 434.115 608.116 434.347 608.116 434.632V446.949C608.116 447.234 608.348 447.466 608.634 447.466H619.669C619.954 447.466 620.186 447.234 620.186 446.949V434.632Z" fill="#C9BFB5"/>
<path fill-rule="evenodd" clip-rule="evenodd" d="M637.211 434.632C637.211 434.347 636.979 434.115 636.693 434.115H625.659C625.373 434.115 625.141 434.347 625.141 434.632V446.949C625.141 447.234 625.373 447.466 625.659 447.466H636.693C636.979 447.466 637.211 447.234 637.211 446.949V434.632Z" fill="#C9BFB5"/>
<path fill-rule="evenodd" clip-rule="evenodd" d="M585.457 434.632C585.457 434.347 585.225 434.115 584.94 434.115H573.905C573.62 434.115 573.388 434.347 573.388 434.632V446.949C573.388 447.234 573.62 447.466 573.905 447.466H584.94C585.225 447.466 585.457 447.234 585.457 446.949V434.632Z" fill="#C9BFB5"/>
<path fill-rule="evenodd" clip-rule="evenodd" d="M569.113 434.632C569.113 434.347 568.882 434.115 568.596 434.115H557.561C557.276 434.115 557.044 434.347 557.044 434.632V446.949C557.044 447.234 557.276 447.466 557.561 447.466H568.596C568.882 447.466 569.113 447.234 569.113 446.949V434.632Z" fill="#C9BFB5"/>
<path fill-rule="evenodd" clip-rule="evenodd" d="M553.451 434.632C553.451 434.347 553.22 434.115 552.934 434.115H541.899C541.614 434.115 541.382 434.347 541.382 434.632V446.949C541.382 447.234 541.614 447.466 541.899 447.466H552.934C553.22 447.466 553.451 447.234 553.451 446.949V434.632Z" fill="#C9BFB5"/>
<path fill-rule="evenodd" clip-rule="evenodd" d="M535.746 434.632C535.746 434.347 535.515 434.115 535.229 434.115H524.194C523.909 434.115 523.677 434.347 523.677 434.632V446.949C523.677 447.234 523.909 447.466 524.194 447.466H535.229C535.515 447.466 535.746 447.234 535.746 446.949V434.632Z" fill="#C9BFB5"/>
<path fill-rule="evenodd" clip-rule="evenodd" d="M521.106 434.632C521.106 434.347 520.874 434.115 520.588 434.115H509.554C509.268 434.115 509.036 434.347 509.036 434.632V446.949C509.036 447.234 509.268 447.466 509.554 447.466H520.588C520.874 447.466 521.106 447.234 521.106 446.949V434.632Z" fill="#C9BFB5"/>
<path fill-rule="evenodd" clip-rule="evenodd" d="M519.743 450.976C519.743 450.69 519.512 450.458 519.226 450.458H508.191C507.906 450.458 507.674 450.69 507.674 450.976V463.292C507.674 463.578 507.906 463.809 508.191 463.809H519.226C519.512 463.809 519.743 463.578 519.743 463.292V450.976Z" fill="#C9BFB5"/>
<path fill-rule="evenodd" clip-rule="evenodd" d="M536.427 450.976C536.427 450.69 536.196 450.458 535.91 450.458H524.875C524.59 450.458 524.358 450.69 524.358 450.976V463.292C524.358 463.578 524.59 463.809 524.875 463.809H535.91C536.196 463.809 536.427 463.578 536.427 463.292V450.976Z" fill="#C9BFB5"/>
<path fill-rule="evenodd" clip-rule="evenodd" d="M553.451 450.976C553.451 450.69 553.22 450.458 552.934 450.458H541.899C541.614 450.458 541.382 450.69 541.382 450.976V463.292C541.382 463.578 541.614 463.809 541.899 463.809H552.934C553.22 463.809 553.451 463.578 553.451 463.292V450.976Z" fill="#C9BFB5"/>
<path fill-rule="evenodd" clip-rule="evenodd" d="M569.113 450.976C569.113 450.69 568.882 450.458 568.596 450.458H557.561C557.276 450.458 557.044 450.69 557.044 450.976V463.292C557.044 463.578 557.276 463.809 557.561 463.809H568.596C568.882 463.809 569.113 463.578 569.113 463.292V450.976Z" fill="#C9BFB5"/>
<path fill-rule="evenodd" clip-rule="evenodd" d="M584.094 450.976C584.094 450.69 583.863 450.458 583.577 450.458H572.542C572.257 450.458 572.025 450.69 572.025 450.976V463.292C572.025 463.578 572.257 463.809 572.542 463.809H583.577C583.863 463.809 584.094 463.578 584.094 463.292V450.976Z" fill="#C9BFB5"/>
<path fill-rule="evenodd" clip-rule="evenodd" d="M599.076 450.976C599.076 450.69 598.845 450.458 598.559 450.458H587.524C587.239 450.458 587.007 450.69 587.007 450.976V463.292C587.007 463.578 587.239 463.809 587.524 463.809H598.559C598.845 463.809 599.076 463.578 599.076 463.292V450.976Z" fill="#C9BFB5"/>
<path fill-rule="evenodd" clip-rule="evenodd" d="M625.86 465.835C625.86 465.616 625.683 465.439 625.464 465.439H617.024C616.806 465.439 616.628 465.616 616.628 465.835V478.395C616.628 478.613 616.806 478.79 617.024 478.79H625.464C625.683 478.79 625.86 478.613 625.86 478.395V465.835Z" fill="#C9BFB5"/>
<path fill-rule="evenodd" clip-rule="evenodd" d="M612.447 465.671C612.447 465.355 612.191 465.099 611.876 465.099H587.58C587.263 465.099 587.007 465.355 587.007 465.671V477.878C587.007 478.194 587.263 478.45 587.58 478.45H611.876C612.191 478.45 612.447 478.194 612.447 477.878V465.671Z" fill="#C9BFB5"/>
<path fill-rule="evenodd" clip-rule="evenodd" d="M585.087 466.011C585.087 465.696 584.831 465.439 584.514 465.439H558.978C558.663 465.439 558.406 465.696 558.406 466.011V478.218C558.406 478.534 558.663 478.79 558.978 478.79H584.514C584.831 478.79 585.087 478.534 585.087 478.218V466.011Z" fill="#C9BFB5"/>
<path fill-rule="evenodd" clip-rule="evenodd" d="M553.805 466.351C553.805 466.036 553.55 465.78 553.234 465.78H482.371C482.055 465.78 481.797 466.036 481.797 466.351V478.558C481.797 478.875 482.055 479.131 482.371 479.131H553.234C553.55 479.131 553.805 478.875 553.805 478.558V466.351Z" fill="#C9BFB5"/>
<path fill-rule="evenodd" clip-rule="evenodd" d="M347.307 348.654L394.164 388.059L654.816 387.909L698.654 349.235L347.307 348.654Z" fill="#505050" stroke="#7E7E7E" stroke-width="0.00208481" stroke-miterlimit="1.5" stroke-linecap="round" stroke-linejoin="round"/>
</svg>
