<svg width="734" height="568" viewBox="0 0 734 568" fill="none" xmlns="http://www.w3.org/2000/svg">
<path d="M727.906 6.45996H6.32715V561.621H727.906V6.45996Z" fill="#DED3D1"/>
<mask id="path-2-inside-1_317_284" fill="white">
<path fill-rule="evenodd" clip-rule="evenodd" d="M506.906 385.759C508.216 385.281 510.835 384.321 512.33 382.946C514.148 381.277 515.817 378.014 517.806 375.743C519.959 373.283 521.926 369.423 525.258 368.189C529.925 366.459 544.608 365.416 545.805 365.371C549.377 365.233 552.966 365.321 556.48 365.886C561.341 366.669 567.756 368.006 571.388 370.274C574.655 372.315 576.045 376.714 578.262 379.502C580.315 382.081 583.238 385.366 584.701 387.008"/>
</mask>
<path d="M512.33 382.946L510.301 380.737L510.3 380.738L512.33 382.946ZM517.806 375.743L520.063 377.719L520.064 377.719L517.806 375.743ZM525.258 368.189L526.299 371.002L526.3 371.002L525.258 368.189ZM545.805 365.371L545.918 368.369L545.921 368.369L545.805 365.371ZM556.48 365.886L556.957 362.924L556.956 362.924L556.48 365.886ZM571.388 370.274L569.799 372.819L569.799 372.819L571.388 370.274ZM578.262 379.502L575.914 381.369L575.915 381.371L578.262 379.502ZM507.933 388.577C508.588 388.339 509.683 387.939 510.823 387.405C511.926 386.888 513.279 386.15 514.361 385.155L510.3 380.738C509.887 381.117 509.183 381.547 508.275 381.973C507.403 382.382 506.534 382.701 505.878 382.94L507.933 388.577ZM514.36 385.156C515.565 384.049 516.623 382.519 517.482 381.262C518.426 379.879 519.218 378.684 520.063 377.719L515.549 373.766C514.406 375.072 513.369 376.645 512.526 377.879C511.598 379.238 510.913 380.175 510.301 380.737L514.36 385.156ZM520.064 377.719C520.693 376.999 521.288 376.203 521.82 375.485C522.376 374.736 522.876 374.056 523.404 373.416C524.481 372.11 525.39 371.339 526.299 371.002L524.216 365.376C521.794 366.273 520.054 368.049 518.776 369.597C518.127 370.384 517.523 371.207 517.001 371.911C516.454 372.648 515.996 373.256 515.549 373.767L520.064 377.719ZM526.3 371.002C528.219 370.291 532.659 369.624 537.159 369.13C541.525 368.652 545.417 368.388 545.918 368.369L545.692 362.373C544.995 362.4 540.948 362.679 536.506 363.166C532.198 363.638 526.964 364.357 524.215 365.376L526.3 371.002ZM545.921 368.369C549.375 368.236 552.751 368.325 556.004 368.848L556.956 362.924C553.181 362.317 549.38 362.231 545.689 362.373L545.921 368.369ZM556.003 368.848C558.384 369.231 561.091 369.742 563.617 370.42C566.19 371.111 568.361 371.921 569.799 372.819L572.977 367.73C570.783 366.359 567.93 365.366 565.173 364.626C562.368 363.872 559.437 363.323 556.957 362.924L556.003 368.848ZM569.799 372.819C570.802 373.446 571.665 374.534 572.653 376.163C573.501 377.561 574.65 379.781 575.914 381.369L580.61 377.635C579.656 376.436 579.002 375.061 577.784 373.052C576.706 371.275 575.24 369.144 572.977 367.73L569.799 372.819ZM575.915 381.371C578.03 384.027 581.011 387.375 582.461 389.004L586.941 385.013C585.466 383.357 582.601 380.136 580.609 377.634L575.915 381.371Z" fill="#767575" fill-opacity="0.83" mask="url(#path-2-inside-1_317_284)"/>
<path d="M571.836 369.506L571.837 369.504L571.836 369.506ZM571.836 369.506L571.836 369.506L571.836 369.506ZM506.908 385.631C507.584 385.414 508.624 385.082 509.678 384.622C508.676 385.156 507.657 385.579 506.921 385.884C506.912 385.888 506.902 385.892 506.892 385.896C506.858 385.905 506.822 385.902 506.787 385.886C506.747 385.868 506.727 385.842 506.717 385.816C506.702 385.774 506.715 385.704 506.786 385.67C506.826 385.657 506.866 385.644 506.908 385.631Z" stroke="black" stroke-width="3"/>
<path fill-rule="evenodd" clip-rule="evenodd" d="M511.856 360.812C512.898 360.417 516.103 360.228 518.1 360.128C520.016 360.029 521.938 360.082 523.849 360.202C526.815 360.388 532.662 360.69 535.896 361.242C538.427 361.672 541.643 362.417 543.256 363.511C544.609 364.429 545.599 366.182 545.578 367.803C545.548 369.937 544.713 373.842 543.081 376.318C541.35 378.944 538.446 382.28 535.182 383.566C531.921 384.853 526.676 384.699 523.511 384.039C520.711 383.455 517.517 382.107 516.191 379.6C514.562 376.517 514.457 368.385 513.735 365.535C513.443 364.381 512.17 363.28 511.856 362.492C511.65 361.972 511.328 361.011 511.856 360.812Z" stroke="black" stroke-width="3" stroke-miterlimit="1.5" stroke-linecap="round" stroke-linejoin="round"/>
<path fill-rule="evenodd" clip-rule="evenodd" d="M587.999 360.812C586.957 360.417 583.752 360.228 581.755 360.128C579.839 360.029 577.917 360.082 576.006 360.202C573.04 360.388 567.193 360.69 563.959 361.242C561.428 361.672 558.212 362.417 556.599 363.511C555.246 364.429 554.256 366.182 554.277 367.803C554.307 369.937 555.142 373.842 556.774 376.318C558.505 378.944 561.409 382.28 564.673 383.566C567.934 384.853 573.179 384.699 576.344 384.039C579.144 383.455 582.338 382.107 583.664 379.6C585.293 376.517 585.398 368.385 586.12 365.535C586.412 364.381 587.685 363.28 587.999 362.492C588.205 361.972 588.527 361.011 587.999 360.812Z" stroke="black" stroke-width="3" stroke-miterlimit="1.5" stroke-linecap="round" stroke-linejoin="round"/>
<path fill-rule="evenodd" clip-rule="evenodd" d="M545.901 366.45C548.76 365.054 551.65 364.914 554.579 366.195Z" fill="#886860"/>
<path d="M545.901 366.45C548.76 365.054 551.65 364.914 554.579 366.195" stroke="black" stroke-width="3" stroke-miterlimit="1.5" stroke-linecap="round" stroke-linejoin="round"/>
<path fill-rule="evenodd" clip-rule="evenodd" d="M429.52 373.484C454.254 373.484 474.337 393.336 474.337 417.788C474.337 442.238 454.254 459.051 429.52 459.051C404.782 459.051 382.292 442.238 382.292 417.788C382.292 393.336 404.782 373.484 429.52 373.484Z" fill="#D9D2C5"/>
<path fill-rule="evenodd" clip-rule="evenodd" d="M429.506 389.195C444.877 389.195 457.357 402.513 457.357 417.708C457.357 432.902 444.877 445.239 429.506 445.239C414.133 445.239 402.637 432.902 402.637 417.708C402.637 402.513 414.133 389.195 429.506 389.195Z" fill="#F2EFEA"/>
<path fill-rule="evenodd" clip-rule="evenodd" d="M469.302 416.589C469.302 415.689 468.565 414.962 467.658 414.962H455.568C454.661 414.962 453.924 415.689 453.924 416.589V419.839C453.924 420.738 454.661 421.465 455.568 421.465H467.658C468.565 421.465 469.302 420.738 469.302 419.839V416.589Z" fill="#F2EFEA"/>
<path fill-rule="evenodd" clip-rule="evenodd" d="M430.181 394.852C443.614 394.852 453.198 401.785 453.198 415.063C453.198 428.34 444.588 441.624 431.156 441.624C417.723 441.624 406.452 431.594 406.452 418.315C406.452 405.037 416.75 394.852 430.181 394.852Z" fill="#875E4D"/>
<path fill-rule="evenodd" clip-rule="evenodd" d="M223.655 302.206C223.655 298.534 220.641 295.554 216.928 295.554H107.154C103.439 295.554 100.424 298.534 100.424 302.206V459.164C100.424 462.834 103.439 465.816 107.154 465.816H216.928C220.641 465.816 223.655 462.834 223.655 459.164V302.206Z" fill="#C49266"/>
<path fill-rule="evenodd" clip-rule="evenodd" d="M105.848 295.846C105.848 295.684 105.715 295.554 105.552 295.554H100.72C100.557 295.554 100.424 295.684 100.424 295.846V465.522C100.424 465.683 100.557 465.816 100.72 465.816H105.552C105.715 465.816 105.848 465.683 105.848 465.522V295.846Z" fill="#A4744A"/>
<path d="M223.657 385.425H100.424V432.423H223.657V385.425Z" fill="#F2EFEA"/>
<path fill-rule="evenodd" clip-rule="evenodd" d="M205.391 295.889C205.391 295.705 205.239 295.554 205.052 295.554H199.523C199.336 295.554 199.184 295.705 199.184 295.889V465.479C199.184 465.665 199.336 465.816 199.523 465.816H205.052C205.239 465.816 205.391 465.665 205.391 465.479V295.889Z" fill="#B24B4C"/>
<path fill-rule="evenodd" clip-rule="evenodd" d="M116.804 466.203C116.804 466.018 116.652 465.868 116.465 465.868H110.936C110.749 465.868 110.597 466.018 110.597 466.203V477.9C110.597 478.085 110.749 478.235 110.936 478.235H116.465C116.652 478.235 116.804 478.085 116.804 477.9V466.203Z" fill="#D9D2C5"/>
<path fill-rule="evenodd" clip-rule="evenodd" d="M127.825 466.203C127.825 466.018 127.673 465.868 127.486 465.868H121.957C121.77 465.868 121.618 466.018 121.618 466.203V477.9C121.618 478.085 121.77 478.235 121.957 478.235H127.486C127.673 478.235 127.825 478.085 127.825 477.9V466.203Z" fill="#A69D8D"/>
<path fill-rule="evenodd" clip-rule="evenodd" d="M424.127 334.794C428.101 336.616 432.823 334.908 434.666 330.982L489.154 214.895C490.998 210.966 489.269 206.299 485.295 204.477L289.317 114.596C285.344 112.774 280.622 114.482 278.778 118.411L224.289 234.498C222.446 238.424 224.176 243.091 228.149 244.913L424.127 334.794Z" fill="#E7E7E7" stroke="#D8D8D8" stroke-width="0.000752027" stroke-miterlimit="1.5" stroke-linecap="round" stroke-linejoin="round"/>
<path fill-rule="evenodd" clip-rule="evenodd" d="M390.511 259.592C391.29 257.931 390.559 255.958 388.877 255.187L308.194 218.183C306.513 217.412 304.516 218.134 303.736 219.795L285.004 259.705C284.224 261.365 284.954 263.341 286.636 264.112L367.319 301.116C369 301.887 370.998 301.162 371.778 299.502L390.511 259.592Z" fill="#DBDBDB" stroke="#BABABA" stroke-width="0.000578" stroke-miterlimit="1.5" stroke-linecap="round" stroke-linejoin="round"/>
<path fill-rule="evenodd" clip-rule="evenodd" d="M284.524 185.48C284.638 185.238 284.531 184.95 284.285 184.837L271.261 178.864C271.015 178.751 270.724 178.856 270.61 179.099L266.208 188.477C266.094 188.72 266.201 189.008 266.446 189.121L279.471 195.094C279.716 195.207 280.008 195.101 280.122 194.858L284.524 185.48Z" stroke="#C4C4C4" stroke-width="0.5" stroke-miterlimit="1.5" stroke-linecap="round" stroke-linejoin="round"/>
<path fill-rule="evenodd" clip-rule="evenodd" d="M290.035 174.167C290.148 173.925 290.042 173.637 289.796 173.524L276.771 167.551C276.526 167.438 276.234 167.544 276.121 167.786L271.719 177.164C271.605 177.407 271.712 177.695 271.957 177.808L284.982 183.781C285.227 183.894 285.519 183.788 285.633 183.546L290.035 174.167Z" stroke="#C4C4C4" stroke-width="0.5" stroke-miterlimit="1.5" stroke-linecap="round" stroke-linejoin="round"/>
<path fill-rule="evenodd" clip-rule="evenodd" d="M301.827 164.704C301.941 164.462 301.834 164.174 301.589 164.061L282.706 155.401C282.46 155.288 282.168 155.394 282.055 155.636L277.653 165.014C277.539 165.257 277.646 165.545 277.891 165.658L296.775 174.318C297.02 174.431 297.311 174.325 297.425 174.083L301.827 164.704Z" stroke="#C4C4C4" stroke-width="0.5" stroke-miterlimit="1.5" stroke-linecap="round" stroke-linejoin="round"/>
<path fill-rule="evenodd" clip-rule="evenodd" d="M307.337 152.554C307.451 152.311 307.344 152.023 307.099 151.911L288.216 143.251C287.97 143.138 287.678 143.243 287.564 143.486L283.163 152.864C283.048 153.107 283.155 153.395 283.401 153.507L302.284 162.168C302.53 162.28 302.821 162.175 302.935 161.932L307.337 152.554Z" stroke="#C4C4C4" stroke-width="0.5" stroke-miterlimit="1.5" stroke-linecap="round" stroke-linejoin="round"/>
<path fill-rule="evenodd" clip-rule="evenodd" d="M302.971 136.268C303.08 136.037 302.978 135.763 302.744 135.655L293.705 131.51C293.471 131.403 293.193 131.503 293.085 131.734L288.663 141.154C288.555 141.385 288.657 141.66 288.891 141.767L297.93 145.912C298.164 146.019 298.441 145.919 298.55 145.688L302.971 136.268Z" stroke="#C4C4C4" stroke-width="0.5" stroke-miterlimit="1.5" stroke-linecap="round" stroke-linejoin="round"/>
<path fill-rule="evenodd" clip-rule="evenodd" d="M315.263 141.925C315.371 141.693 315.269 141.419 315.036 141.312L305.997 137.166C305.763 137.059 305.485 137.159 305.376 137.39L300.955 146.81C300.846 147.041 300.948 147.316 301.182 147.423L310.221 151.568C310.455 151.676 310.733 151.575 310.841 151.344L315.263 141.925Z" stroke="#C4C4C4" stroke-width="0.5" stroke-miterlimit="1.5" stroke-linecap="round" stroke-linejoin="round"/>
<path fill-rule="evenodd" clip-rule="evenodd" d="M328.826 147.999C328.935 147.768 328.833 147.494 328.599 147.386L319.56 143.241C319.326 143.134 319.048 143.234 318.94 143.465L314.518 152.885C314.41 153.116 314.512 153.39 314.746 153.498L323.785 157.643C324.019 157.75 324.296 157.65 324.405 157.419L328.826 147.999Z" stroke="#C4C4C4" stroke-width="0.5" stroke-miterlimit="1.5" stroke-linecap="round" stroke-linejoin="round"/>
<path fill-rule="evenodd" clip-rule="evenodd" d="M340.694 153.656C340.802 153.425 340.701 153.15 340.467 153.043L331.428 148.898C331.194 148.79 330.916 148.891 330.807 149.122L326.386 158.541C326.278 158.772 326.38 159.047 326.613 159.154L335.652 163.3C335.886 163.407 336.164 163.307 336.272 163.075L340.694 153.656Z" stroke="#C4C4C4" stroke-width="0.5" stroke-miterlimit="1.5" stroke-linecap="round" stroke-linejoin="round"/>
<path fill-rule="evenodd" clip-rule="evenodd" d="M353.41 159.521C353.519 159.29 353.417 159.015 353.183 158.908L344.144 154.763C343.91 154.655 343.632 154.756 343.524 154.987L339.102 164.406C338.994 164.637 339.096 164.912 339.33 165.019L348.369 169.165C348.602 169.272 348.88 169.172 348.989 168.94L353.41 159.521Z" stroke="#C4C4C4" stroke-width="0.5" stroke-miterlimit="1.5" stroke-linecap="round" stroke-linejoin="round"/>
<path fill-rule="evenodd" clip-rule="evenodd" d="M365.278 164.758C365.386 164.527 365.285 164.253 365.051 164.145L356.012 160C355.778 159.893 355.5 159.993 355.391 160.224L350.97 169.644C350.862 169.875 350.964 170.15 351.197 170.257L360.236 174.402C360.47 174.509 360.748 174.409 360.856 174.178L365.278 164.758Z" stroke="#C4C4C4" stroke-width="0.5" stroke-miterlimit="1.5" stroke-linecap="round" stroke-linejoin="round"/>
<path fill-rule="evenodd" clip-rule="evenodd" d="M376.299 169.786C376.407 169.555 376.306 169.28 376.072 169.173L367.033 165.028C366.799 164.92 366.521 165.021 366.412 165.252L361.991 174.671C361.883 174.903 361.985 175.177 362.218 175.285L371.257 179.43C371.491 179.537 371.769 179.437 371.877 179.206L376.299 169.786Z" stroke="#C4C4C4" stroke-width="0.5" stroke-miterlimit="1.5" stroke-linecap="round" stroke-linejoin="round"/>
<path fill-rule="evenodd" clip-rule="evenodd" d="M389.015 175.652C389.123 175.421 389.021 175.146 388.787 175.039L379.749 170.893C379.515 170.786 379.237 170.887 379.128 171.118L374.707 180.537C374.598 180.768 374.7 181.043 374.934 181.15L383.973 185.296C384.207 185.403 384.485 185.302 384.593 185.071L389.015 175.652Z" stroke="#C4C4C4" stroke-width="0.5" stroke-miterlimit="1.5" stroke-linecap="round" stroke-linejoin="round"/>
<path fill-rule="evenodd" clip-rule="evenodd" d="M401.306 181.308C401.415 181.077 401.313 180.802 401.079 180.695L392.04 176.549C391.806 176.442 391.528 176.543 391.42 176.774L386.998 186.193C386.89 186.424 386.992 186.699 387.226 186.806L396.265 190.952C396.498 191.059 396.776 190.958 396.885 190.727L401.306 181.308Z" stroke="#C4C4C4" stroke-width="0.5" stroke-miterlimit="1.5" stroke-linecap="round" stroke-linejoin="round"/>
<path fill-rule="evenodd" clip-rule="evenodd" d="M413.174 186.755C413.283 186.523 413.181 186.249 412.947 186.142L403.908 181.996C403.674 181.889 403.396 181.989 403.288 182.22L398.867 191.64C398.758 191.871 398.86 192.146 399.094 192.253L408.133 196.399C408.367 196.506 408.644 196.405 408.753 196.174L413.174 186.755Z" stroke="#C4C4C4" stroke-width="0.5" stroke-miterlimit="1.5" stroke-linecap="round" stroke-linejoin="round"/>
<path fill-rule="evenodd" clip-rule="evenodd" d="M425.467 192.62C425.575 192.389 425.473 192.114 425.24 192.007L416.201 187.861C415.967 187.754 415.689 187.855 415.58 188.086L411.159 197.505C411.051 197.736 411.153 198.011 411.386 198.118L420.425 202.264C420.659 202.371 420.937 202.27 421.045 202.039L425.467 192.62Z" stroke="#C4C4C4" stroke-width="0.5" stroke-miterlimit="1.5" stroke-linecap="round" stroke-linejoin="round"/>
<path fill-rule="evenodd" clip-rule="evenodd" d="M437.334 197.858C437.442 197.626 437.341 197.352 437.107 197.245L428.068 193.099C427.834 192.992 427.556 193.092 427.448 193.323L423.026 202.743C422.918 202.974 423.02 203.249 423.254 203.356L432.292 207.502C432.526 207.609 432.804 207.508 432.913 207.277L437.334 197.858Z" stroke="#C4C4C4" stroke-width="0.5" stroke-miterlimit="1.5" stroke-linecap="round" stroke-linejoin="round"/>
<path fill-rule="evenodd" clip-rule="evenodd" d="M447.931 202.885C448.04 202.654 447.938 202.38 447.704 202.272L438.665 198.127C438.431 198.02 438.153 198.12 438.045 198.351L433.623 207.771C433.515 208.002 433.617 208.277 433.851 208.384L442.89 212.529C443.123 212.637 443.401 212.536 443.51 212.305L447.931 202.885Z" stroke="#C4C4C4" stroke-width="0.5" stroke-miterlimit="1.5" stroke-linecap="round" stroke-linejoin="round"/>
<path fill-rule="evenodd" clip-rule="evenodd" d="M470.523 213.096C470.637 212.853 470.53 212.565 470.285 212.453L451.402 203.793C451.156 203.68 450.864 203.785 450.75 204.028L446.349 213.406C446.235 213.649 446.341 213.937 446.587 214.049L465.471 222.71C465.716 222.822 466.007 222.717 466.121 222.474L470.523 213.096Z" stroke="#C4C4C4" stroke-width="0.5" stroke-miterlimit="1.5" stroke-linecap="round" stroke-linejoin="round"/>
<path fill-rule="evenodd" clip-rule="evenodd" d="M465.173 224.3C465.287 224.058 465.18 223.77 464.935 223.657L440.805 212.591C440.56 212.478 440.268 212.584 440.154 212.826L435.752 222.204C435.638 222.447 435.745 222.735 435.991 222.848L460.12 233.914C460.366 234.027 460.657 233.921 460.771 233.678L465.173 224.3Z" stroke="#C4C4C4" stroke-width="0.5" stroke-miterlimit="1.5" stroke-linecap="round" stroke-linejoin="round"/>
<path fill-rule="evenodd" clip-rule="evenodd" d="M454.152 247.554C454.266 247.311 454.16 247.024 453.914 246.911L429.785 235.845C429.539 235.732 429.248 235.837 429.134 236.08L424.732 245.458C424.618 245.701 424.725 245.989 424.97 246.102L449.1 257.168C449.346 257.281 449.636 257.175 449.75 256.932L454.152 247.554Z" stroke="#C4C4C4" stroke-width="0.5" stroke-miterlimit="1.5" stroke-linecap="round" stroke-linejoin="round"/>
<path fill-rule="evenodd" clip-rule="evenodd" d="M448.24 259.974C448.319 259.806 448.245 259.607 448.075 259.529L441.516 256.521C441.346 256.443 441.144 256.516 441.065 256.684L436.536 266.333C436.457 266.501 436.532 266.7 436.701 266.778L443.261 269.786C443.431 269.864 443.632 269.791 443.711 269.624L448.24 259.974Z" stroke="#C4C4C4" stroke-width="0.5" stroke-miterlimit="1.5" stroke-linecap="round" stroke-linejoin="round"/>
<path fill-rule="evenodd" clip-rule="evenodd" d="M295.226 190.214C295.305 190.046 295.231 189.847 295.062 189.769L288.502 186.761C288.332 186.683 288.131 186.756 288.052 186.923L283.523 196.573C283.444 196.741 283.518 196.94 283.688 197.018L290.247 200.026C290.417 200.104 290.618 200.031 290.697 199.863L295.226 190.214Z" stroke="#C4C4C4" stroke-width="0.5" stroke-miterlimit="1.5" stroke-linecap="round" stroke-linejoin="round"/>
<path fill-rule="evenodd" clip-rule="evenodd" d="M308.833 196.556C308.936 196.337 308.839 196.077 308.617 195.975L300.041 192.041C299.819 191.94 299.555 192.035 299.452 192.254L295.011 201.717C294.908 201.936 295.005 202.197 295.227 202.298L303.803 206.232C304.025 206.333 304.288 206.238 304.391 206.019L308.833 196.556Z" stroke="#C4C4C4" stroke-width="0.5" stroke-miterlimit="1.5" stroke-linecap="round" stroke-linejoin="round"/>
<path fill-rule="evenodd" clip-rule="evenodd" d="M320.277 201.794C320.38 201.574 320.283 201.314 320.061 201.212L311.485 197.279C311.263 197.177 310.999 197.272 310.896 197.491L306.455 206.954C306.352 207.173 306.449 207.434 306.67 207.536L315.247 211.469C315.469 211.571 315.732 211.475 315.835 211.256L320.277 201.794Z" stroke="#C4C4C4" stroke-width="0.5" stroke-miterlimit="1.5" stroke-linecap="round" stroke-linejoin="round"/>
<path fill-rule="evenodd" clip-rule="evenodd" d="M326.211 189.853C326.314 189.633 326.218 189.373 325.996 189.271L317.419 185.338C317.197 185.236 316.934 185.331 316.831 185.551L312.389 195.013C312.286 195.232 312.383 195.493 312.605 195.595L321.181 199.528C321.403 199.63 321.667 199.534 321.77 199.315L326.211 189.853Z" stroke="#C4C4C4" stroke-width="0.5" stroke-miterlimit="1.5" stroke-linecap="round" stroke-linejoin="round"/>
<path fill-rule="evenodd" clip-rule="evenodd" d="M313.919 184.197C314.022 183.978 313.926 183.717 313.704 183.615L305.127 179.682C304.905 179.58 304.642 179.675 304.539 179.895L300.097 189.357C299.994 189.577 300.091 189.837 300.313 189.939L308.889 193.872C309.111 193.974 309.375 193.879 309.478 193.659L313.919 184.197Z" stroke="#C4C4C4" stroke-width="0.5" stroke-miterlimit="1.5" stroke-linecap="round" stroke-linejoin="round"/>
<path fill-rule="evenodd" clip-rule="evenodd" d="M302.475 178.96C302.578 178.741 302.482 178.48 302.26 178.378L293.683 174.445C293.462 174.343 293.198 174.438 293.095 174.658L288.653 184.12C288.55 184.34 288.647 184.6 288.869 184.702L297.446 188.635C297.667 188.737 297.931 188.642 298.034 188.422L302.475 178.96Z" stroke="#C4C4C4" stroke-width="0.5" stroke-miterlimit="1.5" stroke-linecap="round" stroke-linejoin="round"/>
<path fill-rule="evenodd" clip-rule="evenodd" d="M338.927 195.718C339.03 195.499 338.933 195.239 338.712 195.137L330.135 191.204C329.913 191.102 329.649 191.197 329.546 191.416L325.105 200.879C325.002 201.098 325.099 201.359 325.321 201.46L333.897 205.394C334.119 205.496 334.383 205.4 334.486 205.181L338.927 195.718Z" stroke="#C4C4C4" stroke-width="0.5" stroke-miterlimit="1.5" stroke-linecap="round" stroke-linejoin="round"/>
<path fill-rule="evenodd" clip-rule="evenodd" d="M350.371 200.956C350.474 200.736 350.378 200.476 350.156 200.374L341.579 196.441C341.358 196.339 341.094 196.434 340.991 196.654L336.549 206.116C336.446 206.335 336.543 206.596 336.765 206.698L345.342 210.631C345.563 210.733 345.827 210.638 345.93 210.418L350.371 200.956Z" stroke="#C4C4C4" stroke-width="0.5" stroke-miterlimit="1.5" stroke-linecap="round" stroke-linejoin="round"/>
<path fill-rule="evenodd" clip-rule="evenodd" d="M350.795 187.339C350.898 187.12 350.802 186.859 350.58 186.757L342.003 182.824C341.781 182.722 341.518 182.818 341.415 183.037L336.973 192.499C336.87 192.719 336.967 192.979 337.189 193.081L345.765 197.014C345.987 197.116 346.251 197.021 346.354 196.802L350.795 187.339Z" stroke="#C4C4C4" stroke-width="0.5" stroke-miterlimit="1.5" stroke-linecap="round" stroke-linejoin="round"/>
<path fill-rule="evenodd" clip-rule="evenodd" d="M337.655 181.264C337.758 181.045 337.661 180.784 337.44 180.682L328.863 176.749C328.641 176.647 328.377 176.742 328.274 176.962L323.833 186.424C323.73 186.643 323.827 186.904 324.049 187.006L332.625 190.939C332.847 191.041 333.111 190.946 333.214 190.726L337.655 181.264Z" stroke="#C4C4C4" stroke-width="0.5" stroke-miterlimit="1.5" stroke-linecap="round" stroke-linejoin="round"/>
<path fill-rule="evenodd" clip-rule="evenodd" d="M325.364 175.607C325.466 175.388 325.37 175.128 325.148 175.026L316.572 171.092C316.35 170.991 316.086 171.086 315.983 171.305L311.542 180.768C311.439 180.987 311.535 181.248 311.757 181.349L320.334 185.283C320.556 185.384 320.819 185.289 320.922 185.07L325.364 175.607Z" stroke="#C4C4C4" stroke-width="0.5" stroke-miterlimit="1.5" stroke-linecap="round" stroke-linejoin="round"/>
<path fill-rule="evenodd" clip-rule="evenodd" d="M313.495 170.371C313.598 170.152 313.502 169.891 313.28 169.789L304.704 165.856C304.482 165.754 304.218 165.85 304.115 166.069L299.673 175.531C299.57 175.751 299.667 176.011 299.889 176.113L308.466 180.046C308.687 180.148 308.951 180.053 309.054 179.834L313.495 170.371Z" stroke="#C4C4C4" stroke-width="0.5" stroke-miterlimit="1.5" stroke-linecap="round" stroke-linejoin="round"/>
<path fill-rule="evenodd" clip-rule="evenodd" d="M319.429 157.592C319.532 157.372 319.435 157.112 319.214 157.01L310.637 153.077C310.415 152.975 310.151 153.07 310.048 153.29L305.607 162.752C305.504 162.971 305.601 163.232 305.823 163.334L314.399 167.267C314.621 167.369 314.885 167.273 314.987 167.054L319.429 157.592Z" stroke="#C4C4C4" stroke-width="0.5" stroke-miterlimit="1.5" stroke-linecap="round" stroke-linejoin="round"/>
<path fill-rule="evenodd" clip-rule="evenodd" d="M332.569 163.457C332.672 163.238 332.575 162.978 332.353 162.876L323.777 158.943C323.555 158.841 323.291 158.936 323.188 159.155L318.747 168.618C318.644 168.837 318.74 169.098 318.962 169.199L327.539 173.133C327.761 173.235 328.024 173.139 328.127 172.92L332.569 163.457Z" stroke="#C4C4C4" stroke-width="0.5" stroke-miterlimit="1.5" stroke-linecap="round" stroke-linejoin="round"/>
<path fill-rule="evenodd" clip-rule="evenodd" d="M345.284 169.533C345.387 169.313 345.291 169.053 345.069 168.951L336.493 165.018C336.271 164.916 336.007 165.011 335.904 165.23L331.462 174.693C331.359 174.912 331.456 175.173 331.678 175.275L340.255 179.208C340.476 179.31 340.74 179.214 340.843 178.995L345.284 169.533Z" stroke="#C4C4C4" stroke-width="0.5" stroke-miterlimit="1.5" stroke-linecap="round" stroke-linejoin="round"/>
<path fill-rule="evenodd" clip-rule="evenodd" d="M358.848 175.607C358.951 175.388 358.855 175.128 358.633 175.026L350.057 171.092C349.835 170.991 349.571 171.086 349.468 171.305L345.026 180.768C344.923 180.987 345.02 181.248 345.242 181.349L353.819 185.283C354.04 185.384 354.304 185.289 354.407 185.07L358.848 175.607Z" stroke="#C4C4C4" stroke-width="0.5" stroke-miterlimit="1.5" stroke-linecap="round" stroke-linejoin="round"/>
<path fill-rule="evenodd" clip-rule="evenodd" d="M371.988 181.892C372.091 181.673 371.994 181.412 371.773 181.311L363.196 177.377C362.974 177.276 362.71 177.371 362.608 177.59L358.166 187.053C358.063 187.272 358.16 187.533 358.382 187.634L366.958 191.568C367.18 191.669 367.444 191.574 367.547 191.355L371.988 181.892Z" stroke="#C4C4C4" stroke-width="0.5" stroke-miterlimit="1.5" stroke-linecap="round" stroke-linejoin="round"/>
<path fill-rule="evenodd" clip-rule="evenodd" d="M385.552 187.758C385.655 187.539 385.558 187.278 385.337 187.176L376.76 183.243C376.538 183.141 376.274 183.237 376.171 183.456L371.73 192.918C371.627 193.138 371.724 193.398 371.946 193.5L380.522 197.433C380.744 197.535 381.008 197.44 381.111 197.22L385.552 187.758Z" stroke="#C4C4C4" stroke-width="0.5" stroke-miterlimit="1.5" stroke-linecap="round" stroke-linejoin="round"/>
<path fill-rule="evenodd" clip-rule="evenodd" d="M398.691 193.833C398.794 193.614 398.698 193.353 398.476 193.252L389.899 189.318C389.677 189.217 389.414 189.312 389.311 189.531L384.869 198.994C384.766 199.213 384.863 199.473 385.085 199.575L393.661 203.509C393.883 203.61 394.147 203.515 394.25 203.296L398.691 193.833Z" stroke="#C4C4C4" stroke-width="0.5" stroke-miterlimit="1.5" stroke-linecap="round" stroke-linejoin="round"/>
<path fill-rule="evenodd" clip-rule="evenodd" d="M411.407 199.908C411.51 199.689 411.413 199.429 411.192 199.327L402.615 195.393C402.393 195.292 402.129 195.387 402.026 195.606L397.585 205.069C397.482 205.288 397.579 205.549 397.801 205.65L406.377 209.584C406.599 209.686 406.863 209.59 406.966 209.371L411.407 199.908Z" stroke="#C4C4C4" stroke-width="0.5" stroke-miterlimit="1.5" stroke-linecap="round" stroke-linejoin="round"/>
<path fill-rule="evenodd" clip-rule="evenodd" d="M425.395 206.193C425.498 205.974 425.401 205.713 425.179 205.611L416.603 201.678C416.381 201.576 416.117 201.672 416.014 201.891L411.573 211.353C411.47 211.573 411.567 211.833 411.789 211.935L420.365 215.868C420.587 215.97 420.85 215.875 420.953 215.656L425.395 206.193Z" stroke="#C4C4C4" stroke-width="0.5" stroke-miterlimit="1.5" stroke-linecap="round" stroke-linejoin="round"/>
<path fill-rule="evenodd" clip-rule="evenodd" d="M437.686 211.849C437.789 211.63 437.693 211.369 437.471 211.267L428.894 207.334C428.673 207.232 428.409 207.328 428.306 207.547L423.864 217.009C423.761 217.229 423.858 217.489 424.08 217.591L432.656 221.524C432.878 221.626 433.142 221.531 433.245 221.312L437.686 211.849Z" stroke="#C4C4C4" stroke-width="0.5" stroke-miterlimit="1.5" stroke-linecap="round" stroke-linejoin="round"/>
<path fill-rule="evenodd" clip-rule="evenodd" d="M432.176 223.371C432.279 223.152 432.182 222.891 431.961 222.789L423.384 218.856C423.162 218.754 422.898 218.85 422.795 219.069L418.354 228.531C418.251 228.751 418.348 229.011 418.57 229.113L427.146 233.046C427.368 233.148 427.632 233.053 427.735 232.834L432.176 223.371Z" stroke="#C4C4C4" stroke-width="0.5" stroke-miterlimit="1.5" stroke-linecap="round" stroke-linejoin="round"/>
<path fill-rule="evenodd" clip-rule="evenodd" d="M445.316 229.446C445.419 229.227 445.323 228.966 445.101 228.865L436.524 224.931C436.302 224.83 436.039 224.925 435.936 225.144L431.494 234.607C431.391 234.826 431.488 235.086 431.71 235.188L440.286 239.122C440.508 239.223 440.772 239.128 440.875 238.909L445.316 229.446Z" stroke="#C4C4C4" stroke-width="0.5" stroke-miterlimit="1.5" stroke-linecap="round" stroke-linejoin="round"/>
<path fill-rule="evenodd" clip-rule="evenodd" d="M458.879 235.521C458.982 235.302 458.886 235.042 458.664 234.94L450.087 231.006C449.865 230.905 449.602 231 449.499 231.219L445.057 240.682C444.954 240.901 445.051 241.162 445.273 241.263L453.849 245.197C454.071 245.299 454.335 245.203 454.438 244.984L458.879 235.521Z" stroke="#C4C4C4" stroke-width="0.5" stroke-miterlimit="1.5" stroke-linecap="round" stroke-linejoin="round"/>
<path fill-rule="evenodd" clip-rule="evenodd" d="M418.613 217.086C418.715 216.867 418.619 216.607 418.397 216.505L409.821 212.571C409.599 212.47 409.335 212.565 409.232 212.784L404.791 222.247C404.688 222.466 404.784 222.727 405.006 222.828L413.583 226.762C413.805 226.863 414.068 226.768 414.171 226.549L418.613 217.086Z" stroke="#C4C4C4" stroke-width="0.5" stroke-miterlimit="1.5" stroke-linecap="round" stroke-linejoin="round"/>
<path fill-rule="evenodd" clip-rule="evenodd" d="M405.897 211.22C406 211.001 405.904 210.74 405.682 210.639L397.105 206.705C396.883 206.603 396.62 206.699 396.517 206.918L392.075 216.38C391.972 216.6 392.069 216.86 392.291 216.962L400.867 220.896C401.089 220.997 401.353 220.902 401.456 220.683L405.897 211.22Z" stroke="#C4C4C4" stroke-width="0.5" stroke-miterlimit="1.5" stroke-linecap="round" stroke-linejoin="round"/>
<path fill-rule="evenodd" clip-rule="evenodd" d="M393.605 205.565C393.708 205.345 393.611 205.085 393.389 204.983L384.813 201.05C384.591 200.948 384.327 201.043 384.224 201.262L379.783 210.725C379.68 210.944 379.777 211.205 379.999 211.307L388.575 215.24C388.797 215.342 389.06 215.246 389.163 215.027L393.605 205.565Z" stroke="#C4C4C4" stroke-width="0.5" stroke-miterlimit="1.5" stroke-linecap="round" stroke-linejoin="round"/>
<path fill-rule="evenodd" clip-rule="evenodd" d="M380.041 199.28C380.144 199.061 380.048 198.8 379.826 198.698L371.249 194.765C371.028 194.663 370.764 194.758 370.661 194.978L366.219 204.44C366.116 204.66 366.213 204.92 366.435 205.022L375.011 208.955C375.233 209.057 375.497 208.962 375.6 208.742L380.041 199.28Z" stroke="#C4C4C4" stroke-width="0.5" stroke-miterlimit="1.5" stroke-linecap="round" stroke-linejoin="round"/>
<path fill-rule="evenodd" clip-rule="evenodd" d="M368.597 194.043C368.7 193.823 368.604 193.563 368.382 193.461L359.806 189.528C359.584 189.426 359.32 189.521 359.217 189.74L354.775 199.203C354.672 199.422 354.769 199.683 354.991 199.785L363.568 203.718C363.789 203.82 364.053 203.724 364.156 203.505L368.597 194.043Z" stroke="#C4C4C4" stroke-width="0.5" stroke-miterlimit="1.5" stroke-linecap="round" stroke-linejoin="round"/>
<path fill-rule="evenodd" clip-rule="evenodd" d="M361.815 206.193C361.918 205.974 361.822 205.713 361.6 205.611L353.023 201.678C352.801 201.576 352.538 201.672 352.435 201.891L347.993 211.353C347.89 211.573 347.987 211.833 348.209 211.935L356.785 215.868C357.007 215.97 357.271 215.875 357.374 215.656L361.815 206.193Z" stroke="#C4C4C4" stroke-width="0.5" stroke-miterlimit="1.5" stroke-linecap="round" stroke-linejoin="round"/>
<path fill-rule="evenodd" clip-rule="evenodd" d="M374.531 212.268C374.634 212.049 374.537 211.788 374.316 211.686L365.739 207.753C365.517 207.651 365.253 207.747 365.15 207.966L360.709 217.428C360.606 217.648 360.703 217.908 360.925 218.01L369.501 221.943C369.723 222.045 369.987 221.95 370.09 221.73L374.531 212.268Z" stroke="#C4C4C4" stroke-width="0.5" stroke-miterlimit="1.5" stroke-linecap="round" stroke-linejoin="round"/>
<path fill-rule="evenodd" clip-rule="evenodd" d="M387.671 218.134C387.774 217.914 387.678 217.654 387.456 217.552L378.879 213.619C378.657 213.517 378.394 213.612 378.291 213.832L373.849 223.294C373.746 223.513 373.843 223.774 374.065 223.876L382.641 227.809C382.863 227.911 383.127 227.815 383.23 227.596L387.671 218.134Z" stroke="#C4C4C4" stroke-width="0.5" stroke-miterlimit="1.5" stroke-linecap="round" stroke-linejoin="round"/>
<path fill-rule="evenodd" clip-rule="evenodd" d="M399.963 223.79C400.066 223.571 399.969 223.31 399.747 223.208L391.171 219.275C390.949 219.173 390.685 219.268 390.582 219.488L386.141 228.95C386.038 229.17 386.135 229.43 386.356 229.532L394.933 233.465C395.155 233.567 395.418 233.472 395.521 233.252L399.963 223.79Z" stroke="#C4C4C4" stroke-width="0.5" stroke-miterlimit="1.5" stroke-linecap="round" stroke-linejoin="round"/>
<path fill-rule="evenodd" clip-rule="evenodd" d="M411.407 229.027C411.51 228.808 411.413 228.547 411.192 228.446L402.615 224.512C402.393 224.411 402.129 224.506 402.026 224.725L397.585 234.188C397.482 234.407 397.579 234.668 397.801 234.769L406.377 238.703C406.599 238.804 406.863 238.709 406.966 238.49L411.407 229.027Z" stroke="#C4C4C4" stroke-width="0.5" stroke-miterlimit="1.5" stroke-linecap="round" stroke-linejoin="round"/>
<path fill-rule="evenodd" clip-rule="evenodd" d="M423.275 234.474C423.378 234.255 423.281 233.994 423.059 233.892L414.483 229.959C414.261 229.857 413.997 229.953 413.894 230.172L409.453 239.634C409.35 239.854 409.447 240.114 409.668 240.216L418.245 244.149C418.467 244.251 418.73 244.156 418.833 243.937L423.275 234.474Z" stroke="#C4C4C4" stroke-width="0.5" stroke-miterlimit="1.5" stroke-linecap="round" stroke-linejoin="round"/>
<path fill-rule="evenodd" clip-rule="evenodd" d="M438.491 255.575C438.57 255.407 438.496 255.208 438.326 255.13L431.767 252.122C431.597 252.044 431.395 252.116 431.316 252.284L426.787 261.934C426.708 262.101 426.783 262.301 426.952 262.378L433.512 265.387C433.682 265.465 433.883 265.392 433.962 265.224L438.491 255.575Z" stroke="#C4C4C4" stroke-width="0.5" stroke-miterlimit="1.5" stroke-linecap="round" stroke-linejoin="round"/>
<path fill-rule="evenodd" clip-rule="evenodd" d="M428.137 250.594C428.251 250.352 428.144 250.064 427.899 249.951L409.016 241.291C408.77 241.178 408.478 241.284 408.365 241.526L403.963 250.904C403.849 251.147 403.956 251.435 404.202 251.548L423.085 260.208C423.33 260.321 423.621 260.215 423.736 259.972L428.137 250.594Z" stroke="#C4C4C4" stroke-width="0.5" stroke-miterlimit="1.5" stroke-linecap="round" stroke-linejoin="round"/>
<path fill-rule="evenodd" clip-rule="evenodd" d="M406.637 240.981C406.75 240.738 406.644 240.45 406.398 240.338L386.551 231.235C386.306 231.123 386.014 231.228 385.9 231.471L381.498 240.849C381.384 241.092 381.492 241.38 381.737 241.492L401.584 250.595C401.829 250.707 402.121 250.602 402.235 250.359L406.637 240.981Z" stroke="#C4C4C4" stroke-width="0.5" stroke-miterlimit="1.5" stroke-linecap="round" stroke-linejoin="round"/>
<path fill-rule="evenodd" clip-rule="evenodd" d="M382.101 230.323C382.215 230.081 382.109 229.793 381.863 229.68L326.788 204.421C326.542 204.309 326.249 204.414 326.136 204.656L321.734 214.034C321.62 214.277 321.728 214.566 321.974 214.678L377.049 239.937C377.295 240.05 377.586 239.944 377.7 239.701L382.101 230.323Z" stroke="#C4C4C4" stroke-width="0.5" stroke-miterlimit="1.5" stroke-linecap="round" stroke-linejoin="round"/>
<path fill-rule="evenodd" clip-rule="evenodd" d="M264.458 66.3735L286.666 113.349L489.303 206.143L537.321 192.057L264.458 66.3735Z" fill="#505050" stroke="#7E7E7E" stroke-width="0.00208426" stroke-miterlimit="1.5" stroke-linecap="round" stroke-linejoin="round"/>
<path d="M316.379 451.447C319.772 451.447 322.522 448.766 322.522 445.46C322.522 442.153 319.772 439.472 316.379 439.472C312.985 439.472 310.235 442.153 310.235 445.46C310.235 448.766 312.985 451.447 316.379 451.447Z" fill="white" stroke="#BBBBBB" stroke-width="0.000250463" stroke-miterlimit="1.5" stroke-linecap="round" stroke-linejoin="round"/>
<path fill-rule="evenodd" clip-rule="evenodd" d="M326.853 441.589C326.853 440.421 325.892 439.472 324.711 439.472H320.43C319.246 439.472 318.288 440.421 318.288 441.589V459.054C318.288 460.222 319.246 461.171 320.43 461.171H324.711C325.892 461.171 326.853 460.222 326.853 459.054V441.589Z" fill="#DBDBDB" stroke="#BBBBBB" stroke-width="0.000251947" stroke-miterlimit="1.5" stroke-linecap="round" stroke-linejoin="round"/>
<path d="M298.319 456.563C301.145 454.707 301.936 450.97 300.086 448.215C298.235 445.461 294.444 444.732 291.617 446.587C288.79 448.442 287.999 452.18 289.85 454.934C291.7 457.689 295.492 458.418 298.319 456.563Z" fill="white" stroke="#BBBBBB" stroke-width="0.000250464" stroke-miterlimit="1.5" stroke-linecap="round" stroke-linejoin="round"/>
<path fill-rule="evenodd" clip-rule="evenodd" d="M301.601 442.627C300.947 441.654 299.616 441.389 298.632 442.035L295.066 444.376C294.079 445.023 293.812 446.337 294.466 447.31L304.24 461.86C304.894 462.833 306.223 463.099 307.209 462.452L310.776 460.111C311.759 459.465 312.029 458.149 311.376 457.176L301.601 442.627Z" fill="#DBDBDB" stroke="#BBBBBB" stroke-width="0.000251948" stroke-miterlimit="1.5" stroke-linecap="round" stroke-linejoin="round"/>
<path d="M308.963 461.181C310.297 463.46 312.963 468.021 316.2 470.085C324.98 475.686 348.171 490.287 361.651 494.789C372.866 498.533 389.95 499.857 397.082 497.095C403.433 494.638 408.112 483.916 404.45 478.228C396.902 466.503 364.754 444.205 351.792 426.755C340.07 410.976 319.544 385.568 326.676 373.53C333.805 361.493 371.722 356.189 394.581 354.531C417.437 352.872 446.02 369.957 463.816 363.583C481.612 357.21 494.18 335.032 501.357 316.292C508.782 296.905 511.031 262.55 508.366 247.257C506.524 236.697 492.414 228.589 485.36 224.537" stroke="#FFF8F8" stroke-width="2" stroke-miterlimit="1.5" stroke-linecap="round" stroke-linejoin="round"/>
<path d="M322.801 461.082C321.11 462.968 317.725 466.739 317.884 470.119C318.045 473.502 319.628 480.305 323.759 481.369C330.744 483.17 348.518 476.848 359.803 480.926C371.243 485.062 384.121 504.176 392.388 506.179C399.397 507.88 410.654 499.984 409.411 492.956C407.763 483.64 395.397 461.164 382.505 450.275C367.369 437.492 326.835 424.655 318.598 416.258C313.492 411.05 326.556 403.605 333.087 399.879" stroke="#FFF8F8" stroke-width="2" stroke-miterlimit="1.5" stroke-linecap="round" stroke-linejoin="round"/>
<path fill-rule="evenodd" clip-rule="evenodd" d="M330.778 393.64C330.612 393.307 330.205 393.168 329.868 393.332L328.646 393.926C328.312 394.089 328.172 394.494 328.338 394.827L331.254 400.684C331.42 401.017 331.83 401.155 332.164 400.992L333.385 400.398C333.723 400.234 333.859 399.83 333.694 399.497L330.778 393.64Z" fill="white" stroke="#FFF8F8" stroke-width="0.000547309" stroke-miterlimit="1.5" stroke-linecap="round" stroke-linejoin="round"/>
<path fill-rule="evenodd" clip-rule="evenodd" d="M651.653 326.548C648.33 328.011 649.775 335.529 647.766 339.611C645.453 344.308 643.154 351.91 637.773 354.724C630.986 358.275 614.418 360.131 607.04 360.914C602.52 361.391 597.989 360.055 593.492 359.413C588.772 358.737 583.596 357.939 578.713 356.87C572.127 355.431 560.662 354.56 553.971 350.765C547.369 347.022 543.696 339.084 538.577 334.105C533.741 329.404 527.259 324.776 523.249 320.889C520.051 317.793 512.553 312.118 514.515 310.793C516.478 309.472 528.163 312.481 535.02 312.958C542.726 313.493 553.195 314.577 560.77 314.005C567.491 313.501 575.43 311.538 580.482 309.541C584.519 307.941 590.348 304.023 591.082 302.019C591.812 300.01 587.443 297.498 584.874 297.501C577.682 297.517 558.688 300.705 547.91 302.103C538.67 303.302 525.868 305.566 520.213 305.891C518.046 306.017 514.963 305.971 513.967 304.065C512.205 300.682 508.57 288.734 509.644 285.596C510.718 282.461 516.825 285.302 520.418 285.237C527.506 285.103 544.132 284.824 552.183 284.805C557.695 284.79 565.962 286.203 568.716 285.111C570.864 284.259 570.914 278.971 568.716 278.257C565.092 277.081 554.215 277.764 546.972 278.058C538.798 278.39 525.776 280.387 519.68 280.242C516.42 280.162 511.197 279.696 510.393 277.18C509.59 274.667 513.318 268.665 514.855 265.156C516.223 262.036 517.868 259.039 519.618 256.114C521.38 253.166 523.867 250.344 525.428 247.461C526.915 244.72 527.73 241.669 528.99 238.816C530.539 235.307 532.331 230.061 534.718 226.403C537.055 222.829 540.215 219.392 543.321 216.872C546.288 214.466 550.108 209.586 553.345 211.282C556.586 212.977 560.19 222.443 562.755 227.037C564.903 230.889 566.502 238.144 568.716 238.847C570.933 239.546 576.04 234.742 576.04 231.244C576.04 226.399 569.937 215.18 568.716 209.777C567.912 206.207 567.171 201.014 568.716 198.811C570.265 196.608 574.943 195.653 577.994 196.558C581.351 197.555 586.157 201.144 588.849 204.783C592.175 209.27 596.506 216.719 597.935 223.489C599.538 231.084 596.954 244.914 598.468 250.352C599.387 253.643 606.086 259.394 607.04 256.114C608.465 251.199 608.438 230.255 607.04 220.877C605.923 213.42 602.474 204.424 598.634 199.842C595.223 195.775 582.595 195.412 583.994 193.385C585.396 191.361 599.256 189.135 607.04 187.688C614.947 186.214 626.466 183.639 631.453 184.546C634.826 185.16 636.552 189.765 636.962 193.129C637.572 198.196 635.17 207.643 635.135 214.936C635.085 224.91 636.997 242.684 636.665 252.967C636.41 260.936 633.01 271.769 633.149 276.63C633.215 278.959 635.22 282.686 637.507 282.132C640.037 281.521 646.499 277.294 648.327 272.957C650.509 267.787 649.965 258.397 650.602 251.1C651.293 243.238 652.842 234.25 652.456 225.803C652.066 217.258 650.397 206.524 648.261 199.842C646.588 194.595 636.429 188.425 639.647 185.71C642.864 182.993 660.093 178.301 667.576 183.551C675.062 188.799 679.234 206.322 684.549 217.204C689.668 227.682 697.073 237.449 699.464 248.84C702.152 261.658 701.561 283.011 700.685 294.107C700.101 301.496 696.81 309.663 694.21 315.398C692.012 320.244 689.509 325.952 685.09 328.526C680.675 331.1 673.273 331.176 667.703 330.844C662.171 330.519 654.979 325.089 651.653 326.548Z" fill="#88A081"/>
<g opacity="0.53">
<g opacity="0.53">
<path opacity="0.53" d="M650.89 327.836C645.104 322.536 633.53 311.932 624.568 304.295C613.115 294.528 593.758 277.998 582.169 269.246C573.59 262.766 563.051 256.076 555.028 251.769C548.399 248.206 538.823 244.995 534.033 243.391" stroke="#566344" stroke-width="2" stroke-miterlimit="1.5" stroke-linecap="round" stroke-linejoin="round"/>
</g>
<g opacity="0.53">
<path opacity="0.53" d="M639.574 317.13C639.756 316.439 640.119 315.056 640.582 314.09C642.429 310.241 647.397 300.756 650.672 294.025C654.323 286.525 660.295 277.563 662.473 269.102C664.625 260.74 663.795 247.555 663.744 243.247C663.737 242.728 662.69 243.072 662.165 243.247" stroke="#566344" stroke-width="2" stroke-miterlimit="1.5" stroke-linecap="round" stroke-linejoin="round"/>
</g>
<g opacity="0.53">
<path opacity="0.53" d="M614.99 294.083C616.002 290.917 618.026 284.583 619.135 279.733C620.506 273.738 622.994 265.433 623.222 258.102C623.566 247.296 621.974 225.699 621.179 214.9" stroke="#566344" stroke-width="2" stroke-miterlimit="1.5" stroke-linecap="round" stroke-linejoin="round"/>
</g>
<g opacity="0.53">
<path opacity="0.53" d="M643.557 320.692C640.86 322.559 635.471 326.297 631.473 329.165C627.39 332.094 623.307 335.385 619.054 338.253C614.647 341.227 610.239 345.176 605.028 347.001C599.685 348.868 591.237 349.265 587.015 349.464" stroke="#566344" stroke-width="2" stroke-miterlimit="1.5" stroke-linecap="round" stroke-linejoin="round"/>
</g>
<g opacity="0.53">
<path opacity="0.53" d="M602.43 285.708C595.755 287.892 582.401 292.256 571.99 293.356C558.756 294.757 534.925 294.322 523.012 294.108" stroke="#566344" stroke-width="2" stroke-miterlimit="1.5" stroke-linecap="round" stroke-linejoin="round"/>
</g>
</g>
<path d="M651.019 327.815C651.189 331.691 651.528 339.446 652.378 345.2C653.356 351.791 656.152 360.107 656.863 367.362C657.562 374.457 657.551 381.67 656.662 388.741C655.751 396.012 652.089 404.13 651.393 410.968C650.756 417.223 652.479 424.436 652.479 429.789C652.479 434.238 651.756 440.141 651.393 443.093" stroke="#566344" stroke-width="2" stroke-miterlimit="1.5" stroke-linecap="round" stroke-linejoin="round"/>
<path fill-rule="evenodd" clip-rule="evenodd" d="M663.342 379.636C659.742 378.863 654.41 377.901 649.972 378.477C644.67 379.166 636.268 380.732 631.527 383.771C626.916 386.728 623.886 391.819 621.513 396.719C619.056 401.796 616.101 408.472 616.786 414.235C617.475 419.996 620.9 426.94 625.633 431.291C630.825 436.065 641.316 441.765 647.938 442.88C653.892 443.88 660.08 440.861 665.366 437.969C670.845 434.974 677.544 429.561 680.82 424.899C683.797 420.663 684.762 414.695 685.025 409.997C685.276 405.493 684.422 400.76 682.395 396.719C680.153 392.24 674.743 385.968 671.567 383.12C669.358 381.139 666.256 380.262 663.342 379.636Z" stroke="#FFF8F8" stroke-width="2" stroke-miterlimit="1.5" stroke-linecap="round" stroke-linejoin="round"/>
<path fill-rule="evenodd" clip-rule="evenodd" d="M650.799 387.664C648.175 389.416 645.286 393.202 644.769 396.658C644.256 400.111 645.622 405.788 647.709 408.39C649.794 410.991 653.881 412.199 657.285 412.272C660.689 412.347 665.828 411.688 668.132 408.827C670.438 405.965 672.379 398.89 671.11 395.107C669.839 391.324 663.898 387.372 660.513 386.132C657.439 385.004 653.423 385.91 650.799 387.664Z" stroke="#FFF8F8" stroke-width="2" stroke-miterlimit="1.5" stroke-linecap="round" stroke-linejoin="round"/>
<path d="M647.785 390.242C646.519 391.823 643.985 394.984 642.687 397.336C641.475 399.536 639.998 401.859 639.998 404.364C639.998 407.096 640.692 411.586 642.687 413.732C644.681 415.881 649.435 416.805 651.972 417.253C653.937 417.598 656.051 417.156 657.9 416.414C659.968 415.584 662.767 413.51 664.391 412.27C665.619 411.327 666.966 409.746 667.638 408.958" stroke="#FFF8F8" stroke-width="2" stroke-miterlimit="1.5" stroke-linecap="round" stroke-linejoin="round"/>
</svg>
