<svg width="88" height="80" viewBox="0 0 88 80" fill="none" xmlns="http://www.w3.org/2000/svg">
<path d="M12.1787 34.2572L30 34.7972L43.1651 73.1401" stroke="#231F20" stroke-width="2" stroke-miterlimit="1.5" stroke-linecap="round" stroke-linejoin="round"/>
<path d="M69.8325 77.9999C77.2889 77.9999 83.3335 71.9553 83.3335 64.4989C83.3335 57.0425 77.2889 50.9979 69.8325 50.9979C62.3761 50.9979 56.3315 57.0425 56.3315 64.4989C56.3315 71.9553 62.3761 77.9999 69.8325 77.9999Z" stroke="#231F20" stroke-width="2" stroke-miterlimit="1.5" stroke-linecap="round" stroke-linejoin="round"/>
<path d="M16.501 77.9999C23.9574 77.9999 30.002 71.9553 30.002 64.4989C30.002 57.0425 23.9574 50.9979 16.501 50.9979C9.0446 50.9979 3 57.0425 3 64.4989C3 71.9553 9.0446 77.9999 16.501 77.9999Z" stroke="#231F20" stroke-width="2" stroke-miterlimit="1.5" stroke-linecap="round" stroke-linejoin="round"/>
<path d="M69.4253 56.9372C69.4253 56.9372 59.3865 40.1047 60.7847 31.0153C61.8648 23.9948 72.1255 28.3151 72.1255 28.3151" stroke="#231F20" stroke-width="2" stroke-miterlimit="1.5" stroke-linecap="round" stroke-linejoin="round"/>
<path d="M24.5996 52.0767L33.2402 43.436L58.6221 43.9761L30 63.4175" stroke="#231F20" stroke-width="2" stroke-miterlimit="1.5" stroke-linecap="round" stroke-linejoin="round"/>
</svg>
