<svg width="715" height="677" viewBox="0 0 715 677" fill="none" xmlns="http://www.w3.org/2000/svg">
<path fill-rule="evenodd" clip-rule="evenodd" d="M155.538 143.574C151.221 114.066 134.451 76.14 146.437 54.566C158.422 32.992 201.6 18.9736 227.451 14.1252C252.018 9.518 276.575 25.4807 301.57 25.4807C330.645 25.4807 368.408 17.3099 401.919 14.1252C439.436 10.5566 493.821 -8.10351 526.662 4.07402C559.498 16.2565 587.973 52.1738 598.95 87.215C611.954 128.739 628.069 210.004 604.694 253.211C581.318 296.414 514.741 332.533 458.701 346.458C398.65 361.377 290.918 353.688 244.393 342.736C215.283 335.885 191.726 308.055 179.543 280.741C164.732 247.551 161.056 181.273 155.538 143.574Z" fill="#F2EFEA"/>
<path opacity="0.5" fill-rule="evenodd" clip-rule="evenodd" d="M7.24478 650.691C89.1089 663.956 461.282 676.931 577.702 676.931C621.278 676.931 747.72 662.485 705.768 650.691C663.638 638.853 428.136 614.779 324.927 605.889C245.694 599.062 139.453 589.867 86.51 597.334C54.97 601.784 -24.1948 645.597 7.24478 650.691Z" fill="#DDBEA9"/>
<path fill-rule="evenodd" clip-rule="evenodd" d="M432.508 60.8941C432.508 56.485 428.926 52.9067 424.52 52.9067H289.727C285.321 52.9067 281.739 56.485 281.739 60.8941V226.53C281.739 230.934 285.321 234.512 289.727 234.512H424.52C428.926 234.512 432.508 230.934 432.508 226.53V60.8941Z" fill="#DDBEA9"/>
<path fill-rule="evenodd" clip-rule="evenodd" d="M422.337 65.7022C422.337 64.7828 421.588 64.0356 420.671 64.0356H292.994C292.076 64.0356 291.327 64.7828 291.327 65.7022V93.8305C291.327 94.7499 292.076 95.4963 292.994 95.4963H420.671C421.588 95.4963 422.337 94.7499 422.337 93.8305V65.7022Z" fill="#DED3D1"/>
<path fill-rule="evenodd" clip-rule="evenodd" d="M321.048 107.783C321.048 107.095 320.489 106.536 319.8 106.536H292.188C291.5 106.536 290.941 107.095 290.941 107.783V128.821C290.941 129.509 291.5 130.067 292.188 130.067H319.8C320.489 130.067 321.048 129.509 321.048 128.821V107.783Z" fill="#F2EFEA"/>
<path fill-rule="evenodd" clip-rule="evenodd" d="M321.048 137.707C321.048 137.02 320.489 136.461 319.8 136.461H292.188C291.5 136.461 290.941 137.02 290.941 137.707V158.746C290.941 159.434 291.5 159.992 292.188 159.992H319.8C320.489 159.992 321.048 159.434 321.048 158.746V137.707Z" fill="#F2EFEA"/>
<path fill-rule="evenodd" clip-rule="evenodd" d="M321.048 167.197C321.048 166.51 320.489 165.951 319.8 165.951H292.188C291.5 165.951 290.941 166.51 290.941 167.197V188.236C290.941 188.923 291.5 189.482 292.188 189.482H319.8C320.489 189.482 321.048 188.923 321.048 188.236V167.197Z" fill="#F2EFEA"/>
<path fill-rule="evenodd" clip-rule="evenodd" d="M321.048 197.891C321.048 197.203 320.489 196.644 319.8 196.644H292.188C291.5 196.644 290.941 197.203 290.941 197.891V218.929C290.941 219.617 291.5 220.175 292.188 220.175H319.8C320.489 220.175 321.048 219.617 321.048 218.929V197.891Z" fill="#F2EFEA"/>
<path fill-rule="evenodd" clip-rule="evenodd" d="M354.779 107.783C354.779 107.095 354.22 106.536 353.531 106.536H325.919C325.231 106.536 324.672 107.095 324.672 107.783V128.821C324.672 129.509 325.231 130.067 325.919 130.067H353.531C354.22 130.067 354.779 129.509 354.779 128.821V107.783Z" fill="#F2EFEA"/>
<path fill-rule="evenodd" clip-rule="evenodd" d="M354.779 137.707C354.779 137.02 354.22 136.461 353.531 136.461H325.919C325.231 136.461 324.672 137.02 324.672 137.707V158.746C324.672 159.434 325.231 159.992 325.919 159.992H353.531C354.22 159.992 354.779 159.434 354.779 158.746V137.707Z" fill="#F2EFEA"/>
<path fill-rule="evenodd" clip-rule="evenodd" d="M354.779 167.197C354.779 166.51 354.22 165.951 353.531 165.951H325.919C325.231 165.951 324.672 166.51 324.672 167.197V188.236C324.672 188.923 325.231 189.482 325.919 189.482H353.531C354.22 189.482 354.779 188.923 354.779 188.236V167.197Z" fill="#F2EFEA"/>
<path fill-rule="evenodd" clip-rule="evenodd" d="M354.779 197.891C354.779 197.203 354.22 196.644 353.531 196.644H325.919C325.231 196.644 324.672 197.203 324.672 197.891V218.929C324.672 219.617 325.231 220.175 325.919 220.175H353.531C354.22 220.175 354.779 219.617 354.779 218.929V197.891Z" fill="#F2EFEA"/>
<path fill-rule="evenodd" clip-rule="evenodd" d="M388.507 107.783C388.507 107.095 387.948 106.536 387.259 106.536H359.647C358.959 106.536 358.4 107.095 358.4 107.783V128.821C358.4 129.509 358.959 130.067 359.647 130.067H387.259C387.948 130.067 388.507 129.509 388.507 128.821V107.783Z" fill="#F2EFEA"/>
<path fill-rule="evenodd" clip-rule="evenodd" d="M388.507 137.707C388.507 137.02 387.948 136.461 387.259 136.461H359.647C358.959 136.461 358.4 137.02 358.4 137.707V158.746C358.4 159.434 358.959 159.992 359.647 159.992H387.259C387.948 159.992 388.507 159.434 388.507 158.746V137.707Z" fill="#F2EFEA"/>
<path fill-rule="evenodd" clip-rule="evenodd" d="M388.507 167.197C388.507 166.51 387.948 165.951 387.259 165.951H359.647C358.959 165.951 358.4 166.51 358.4 167.197V188.236C358.4 188.923 358.959 189.482 359.647 189.482H387.259C387.948 189.482 388.507 188.923 388.507 188.236V167.197Z" fill="#F2EFEA"/>
<path fill-rule="evenodd" clip-rule="evenodd" d="M388.507 197.891C388.507 197.203 387.948 196.644 387.259 196.644H359.647C358.959 196.644 358.4 197.203 358.4 197.891V218.929C358.4 219.617 358.959 220.175 359.647 220.175H387.259C387.948 220.175 388.507 219.617 388.507 218.929V197.891Z" fill="#F2EFEA"/>
<path fill-rule="evenodd" clip-rule="evenodd" d="M422.238 107.783C422.238 107.095 421.679 106.536 420.99 106.536H393.378C392.69 106.536 392.131 107.095 392.131 107.783V128.821C392.131 129.509 392.69 130.067 393.378 130.067H420.99C421.679 130.067 422.238 129.509 422.238 128.821V107.783Z" fill="#F2EFEA"/>
<path fill-rule="evenodd" clip-rule="evenodd" d="M422.238 137.707C422.238 137.02 421.679 136.461 420.99 136.461H393.378C392.69 136.461 392.131 137.02 392.131 137.707V158.746C392.131 159.434 392.69 159.992 393.378 159.992H420.99C421.679 159.992 422.238 159.434 422.238 158.746V137.707Z" fill="#F2EFEA"/>
<path fill-rule="evenodd" clip-rule="evenodd" d="M422.238 167.197C422.238 166.51 421.679 165.951 420.99 165.951H393.378C392.69 165.951 392.131 166.51 392.131 167.197V188.236C392.131 188.923 392.69 189.482 393.378 189.482H420.99C421.679 189.482 422.238 188.923 422.238 188.236V167.197Z" fill="#F2EFEA"/>
<path fill-rule="evenodd" clip-rule="evenodd" d="M422.238 197.891C422.238 197.203 421.679 196.644 420.99 196.644H393.378C392.69 196.644 392.131 197.203 392.131 197.891V218.929C392.131 219.617 392.69 220.175 393.378 220.175H420.99C421.679 220.175 422.238 219.617 422.238 218.929V197.891Z" fill="#A9BA88"/>
<path d="M330.878 82.8782L332.34 83.0673C332.104 83.9653 331.677 84.6623 331.058 85.1585C330.429 85.6548 329.63 85.9029 328.652 85.9029C327.438 85.9029 326.46 85.513 325.74 84.7214C325.032 83.9179 324.672 82.8073 324.672 81.3776C324.672 79.9006 325.032 78.7545 325.752 77.9392C326.482 77.1121 327.427 76.7104 328.585 76.7104C329.698 76.7104 330.609 77.1121 331.317 77.9155C332.037 78.7072 332.385 79.8416 332.385 81.2949C332.385 81.3776 332.385 81.5076 332.374 81.6848H326.134C326.19 82.6537 326.449 83.3981 326.921 83.9061C327.382 84.426 327.966 84.6742 328.663 84.6742C329.192 84.6742 329.631 84.5324 330.002 84.2488C330.361 83.9653 330.653 83.5044 330.878 82.8782ZM326.213 80.4677H330.89C330.822 79.7234 330.642 79.168 330.35 78.8017C329.9 78.2227 329.316 77.9392 328.596 77.9392C327.944 77.9392 327.393 78.1638 326.954 78.6246C326.505 79.0854 326.258 79.6997 326.213 80.4677Z" fill="white"/>
<path d="M333.106 85.8008L336.456 73.2407H337.592L334.253 85.8008H333.106Z" fill="white"/>
<path d="M339.871 73.6265H338.453V85.7705H339.871V73.6265Z" fill="white"/>
<path d="M347.742 82.8782L349.215 83.0673C348.979 83.9653 348.552 84.6623 347.933 85.1585C347.304 85.6548 346.506 85.9029 345.528 85.9029C344.302 85.9029 343.335 85.513 342.615 84.7214C341.896 83.9179 341.536 82.8073 341.536 81.3776C341.536 79.9006 341.907 78.7545 342.627 77.9392C343.357 77.1121 344.291 76.7104 345.449 76.7104C346.573 76.7104 347.484 77.1121 348.192 77.9155C348.9 78.7072 349.26 79.8416 349.26 81.2949C349.26 81.3776 349.26 81.5076 349.249 81.6848H343.009C343.065 82.6537 343.324 83.3981 343.785 83.9061C344.257 84.426 344.842 84.6742 345.539 84.6742C346.056 84.6742 346.506 84.5324 346.877 84.2488C347.236 83.9653 347.529 83.5044 347.742 82.8782ZM343.088 80.4677H347.765C347.697 79.7234 347.518 79.168 347.225 78.8017C346.776 78.2227 346.191 77.9392 345.471 77.9392C344.819 77.9392 344.268 78.1638 343.83 78.6246C343.38 79.0854 343.133 79.6997 343.088 80.4677Z" fill="white"/>
<path d="M356.633 82.4882L358.027 82.6773C357.881 83.6816 357.488 84.4733 356.858 85.0522C356.228 85.6194 355.464 85.9029 354.542 85.9029C353.406 85.9029 352.484 85.513 351.787 84.7214C351.09 83.9415 350.742 82.8072 350.742 81.3421C350.742 80.385 350.888 79.5579 351.191 78.849C351.484 78.1401 351.945 77.5966 352.552 77.2421C353.17 76.8876 353.833 76.7104 354.553 76.7104C355.464 76.7104 356.206 76.9467 356.779 77.4312C357.364 77.9156 357.735 78.6009 357.892 79.4871L356.521 79.7115C356.386 79.1207 356.15 78.6836 355.824 78.3882C355.486 78.081 355.081 77.9392 354.609 77.9392C353.89 77.9392 353.316 78.211 352.867 78.7427C352.417 79.2862 352.192 80.137 352.192 81.2949C352.192 82.4765 352.417 83.339 352.844 83.8707C353.271 84.4142 353.833 84.6742 354.53 84.6742C355.093 84.6742 355.554 84.4969 355.925 84.1424C356.296 83.7761 356.532 83.2326 356.633 82.4882Z" fill="white"/>
<path d="M362.215 85.773V75.0679H358.403V73.6265H367.566V75.0679H363.744V85.773H362.215Z" fill="white"/>
<path d="M376.701 73.6265H378.23V80.6449C378.23 81.8737 378.107 82.8427 377.837 83.5516C377.578 84.2724 377.106 84.8632 376.42 85.3122C375.734 85.7612 374.835 85.9856 373.711 85.9856C372.631 85.9856 371.743 85.7847 371.057 85.3948C370.371 85.0049 369.877 84.4378 369.584 83.6934C369.292 82.949 369.146 81.9328 369.146 80.6449V73.6265H370.675V80.6449C370.675 81.6965 370.765 82.4764 370.956 82.9727C371.136 83.4689 371.462 83.8588 371.912 84.1306C372.373 84.4024 372.924 84.5323 373.587 84.5323C374.711 84.5323 375.509 84.2606 375.982 83.7289C376.465 83.1972 376.701 82.1691 376.701 80.6449V73.6265Z" fill="white"/>
<path d="M381 85.773V73.6265H383.294L386.037 82.2283C386.285 83.0318 386.476 83.6344 386.588 84.0243C386.712 83.5871 386.925 82.9372 387.206 82.0865L389.972 73.6265H392.03V85.773H390.557V75.6116L387.195 85.773H385.812L382.473 75.4343V85.773H381Z" fill="white"/>
<path d="M400.567 198.181H400.563V198.18H400.567V198.181ZM400.567 198.183H400.563V198.182H400.567V198.183Z" fill="white"/>
<path fill-rule="evenodd" clip-rule="evenodd" d="M296.246 175.875C298.653 173.749 300.967 169.078 302.709 168.733C304.402 168.394 308.394 163.486 309.182 163.688C309.965 163.89 305.948 169.644 307.425 169.949C308.906 170.259 315.674 165.642 318.057 165.529C318.923 165.49 318.46 166.996 319.135 167.719C319.824 168.458 321.645 168.423 321.724 169.27C321.773 169.811 321.615 170.496 321.34 171.229C320.769 172.76 319.696 174.502 318.987 175.6C318.106 176.973 316.841 178.13 315.458 179.006C313.193 180.443 307.592 182.875 305.397 184.224C304.191 184.967 303.433 186.281 302.286 187.108C299.613 189.047 292.757 195.835 289.36 195.835C285.959 195.835 280.751 190.435 281.898 187.108C283.045 183.781 292.776 178.937 296.246 175.875Z" fill="#E3AF9A"/>
<path fill-rule="evenodd" clip-rule="evenodd" d="M227.658 582.947C224.222 587.776 227.658 603.763 227.658 610.27C227.658 614.169 225.546 619.544 227.658 621.975C229.774 624.402 237.054 624.136 240.337 624.835C242.671 625.332 245.717 627.774 247.371 626.184C249.025 624.594 249.788 618.397 250.265 615.296C250.654 612.761 250.659 610.133 250.236 607.603C249.773 604.826 247.785 601.75 247.475 598.639C247.046 594.288 247.534 584.394 247.667 581.505C247.676 581.288 248.498 581.269 248.282 581.288C244.945 581.525 231.098 578.114 227.658 582.947Z" fill="#E3AF9A"/>
<path fill-rule="evenodd" clip-rule="evenodd" d="M214.66 70.2151C216.102 69.9296 218.017 70.7171 218.681 72.0264C219.375 73.38 218.218 76.3284 218.809 78.3514C219.405 80.3991 221.423 82.6436 222.25 84.3123C222.894 85.6068 224.228 86.9949 223.78 88.3682C223.205 90.1254 218.292 92.1828 218.809 94.8605C219.4 97.9025 226.123 104.075 227.315 106.615C227.841 107.747 226.65 109.494 225.941 110.105C225.232 110.715 223.278 109.73 223.057 110.282C222.835 110.833 224.627 112.398 224.617 113.402C224.607 114.402 223.042 115.189 222.998 116.297C222.949 117.532 224.435 119.846 224.317 120.825C224.223 121.628 222.54 121.401 222.304 122.174C221.979 123.247 222.914 125.644 222.363 127.239C221.782 128.932 220.763 131.644 218.809 132.323C216.86 133.008 213.331 131.915 210.658 131.329C207.946 130.738 204.441 128.489 202.531 128.775C200.745 129.035 199.637 131.59 199.189 133.032C198.746 134.45 199.445 136.01 199.829 137.443C200.243 138.993 200.774 140.977 201.68 142.33C202.576 143.674 203.762 144.978 205.253 145.594C207.414 146.485 212.4 147.238 214.66 147.681C216.028 147.951 220.168 147.932 218.809 148.267C215.354 149.108 201.311 151.377 193.927 152.741C187.46 153.937 181.115 156.442 174.534 156.442C167.436 156.442 156.002 153.361 151.316 152.741C149.701 152.529 146.374 154.37 146.433 152.741C146.497 150.885 149.312 144.944 151.705 141.607C155.111 136.862 163.292 128.858 166.85 124.276C169.287 121.14 171.457 117.739 173.062 114.111C175.631 108.303 179.54 95.3331 182.272 89.4412C184.073 85.5526 185.988 81.1522 189.438 78.7699C192.894 76.3875 198.795 76.5647 202.999 75.1373C206.991 73.7837 212.046 70.7319 214.66 70.2151Z" fill="#E0B39D"/>
<path fill-rule="evenodd" clip-rule="evenodd" d="M156.899 591.996C155.422 594.349 157.696 600.699 158.321 603.701C158.779 605.892 160.418 607.772 160.655 609.997C160.925 612.561 159.995 616.248 159.951 619.078C159.906 621.717 158.538 625.659 160.389 626.979C162.24 628.293 167.816 628.263 171.06 626.979C174.299 625.689 177.134 621.973 179.831 619.261C182.489 616.583 186.452 612.409 187.234 610.696C187.677 609.726 184.98 609.963 184.527 608.993C183.297 606.34 181.121 597.982 179.831 594.763C179.093 592.927 178.611 590.421 176.785 589.668C174.673 588.807 170.366 589.211 167.186 589.58C163.874 589.969 158.381 589.644 156.899 591.996Z" fill="#E3AF9A"/>
<path fill-rule="evenodd" clip-rule="evenodd" d="M227.493 619.816C225.15 620.855 226.666 625.177 225.968 627.79C224.993 631.443 222.202 637.364 221.646 641.73C221.129 645.791 220.578 651.614 222.625 653.972C224.678 656.334 230.309 654.892 233.941 655.896C237.564 656.895 241.512 660.4 244.436 660.001C247.359 659.603 249.88 655.453 251.494 653.499C252.734 651.993 252.725 648.813 254.123 648.267C255.516 647.72 257.858 650.432 259.872 650.226C262.51 649.95 267.629 649.226 269.957 646.618C272.281 644.009 273.777 638.604 273.836 634.578C273.895 630.557 272.182 625.167 270.312 622.474C268.648 620.087 264.469 619.546 262.589 618.418C261.314 617.655 259.995 616.858 259.04 615.726C257.627 614.052 255.712 609.613 254.118 608.392C252.892 607.452 250.377 607.132 249.481 608.392C248.442 609.864 248.708 614.874 247.866 617.217C247.163 619.176 245.74 621.721 244.436 622.445C243.131 623.168 241.522 621.795 240.045 621.564C237.22 621.126 229.841 618.778 227.493 619.816Z" fill="#DED3D1"/>
<path fill-rule="evenodd" clip-rule="evenodd" d="M160.146 624.372C158.187 626.134 156.878 630.367 156.223 633.621C155.569 636.874 156.223 641.236 156.223 643.899C156.223 645.798 154.904 648.225 156.223 649.594C157.927 651.366 163.026 653.91 166.457 654.535C169.868 655.151 173.727 654.693 176.788 653.329C179.85 651.966 182.552 648.516 184.826 646.34C186.815 644.445 188.198 641.743 190.443 640.295C192.692 638.848 196.315 638.775 198.303 637.662C199.967 636.727 201.355 635.245 202.359 633.621C203.393 631.947 204.151 629.412 204.51 627.616C204.82 626.051 204.51 624.421 204.51 622.827C204.51 620.887 205.544 617.919 204.51 615.98C203.472 614.045 200.075 612.485 198.303 611.191C196.866 610.142 195.335 609.231 193.873 608.217C191.998 606.913 188.553 602.862 187.046 603.364C179.565 605.845 184.516 607.981 184.034 609.399C183.212 611.816 181.597 614.789 179.417 616.644C176.739 618.913 171.187 621.753 167.973 623.043C165.517 624.028 162.101 622.61 160.146 624.372Z" fill="#DED3D1"/>
<path fill-rule="evenodd" clip-rule="evenodd" d="M198.469 88.3387L201.791 91.4348L205.857 88.2944C205.857 88.2944 208.727 84.6471 210.204 82.9095C211.66 81.1917 213.314 79.6412 214.717 77.8741C216.14 76.0775 218.31 73.892 218.739 72.1249C219.142 70.4809 218.566 68.3841 217.306 67.2569C215.273 65.4455 209.47 63.1764 206.541 61.237C204.085 59.6176 201.983 56.4625 199.719 55.6454C197.593 54.8776 195.225 56.433 192.971 56.3345C190.721 56.241 188.123 55.6503 186.213 55.0793C184.554 54.5822 183.23 52.8496 181.502 52.9087C179.4 52.9825 175.989 54.1294 173.582 55.5174C171.033 56.9843 168.001 59.8244 166.229 61.7096C164.84 63.1912 164.018 65.3175 162.95 66.8385C161.976 68.2266 160.681 69.3784 159.815 70.8353C158.87 72.4351 157.703 74.4285 157.26 76.4319C156.748 78.7404 157.698 82.0924 156.748 84.6815C155.789 87.305 152.732 89.397 151.501 92.1829C150.271 94.9689 149.7 98.2668 149.365 101.407C149.006 104.813 150.345 109.037 149.336 112.645C148.287 116.395 143.837 119.683 143.07 123.911C142.282 128.238 144.719 134.534 144.62 138.59C144.541 141.882 143.183 145.983 142.474 148.237C142.041 149.64 139.88 151.407 140.392 152.116C140.899 152.829 144.02 153.12 145.536 152.51C147.052 151.899 147.938 149.537 149.488 148.463C151.531 147.051 155.035 145.313 157.762 144.038C160.396 142.808 163.782 141.823 165.859 140.804C167.42 140.042 168.926 139.111 170.201 137.93C171.692 136.562 173.341 134.278 174.783 132.57C176.152 130.95 177.417 129.247 178.854 127.692C180.35 126.082 182.669 124.906 183.761 122.902C184.908 120.801 184.889 117.163 185.725 115.101C186.415 113.398 187.719 112.014 188.782 110.513C189.914 108.909 192.124 107.033 192.543 105.463C192.927 103.991 192.041 102.362 191.278 101.082C190.515 99.8025 188.3 99.3103 187.96 97.7893C187.576 96.0912 188.561 93.1133 188.994 90.9081C189.412 88.7768 189.589 85.5774 190.544 84.5732C191.499 83.574 193.458 84.2976 194.718 84.8932C196.037 85.5232 198.469 88.3387 198.469 88.3387Z" fill="#353535"/>
<path fill-rule="evenodd" clip-rule="evenodd" d="M179.617 284.929C181.315 286.007 189.048 287.991 193.316 288.601C197.253 289.167 201.678 288.601 205.247 288.601H235.455C238.408 288.601 243.438 289.92 244.31 288.601C245.181 287.282 242.237 282.438 240.682 280.676C239.289 279.106 236.877 278.899 234.967 278.033C232.772 277.034 230.099 275.557 227.525 274.686C224.847 273.78 221.023 273.564 218.891 272.584C217.188 271.801 214.742 270.256 214.742 268.799C214.742 267.337 218.891 265.983 218.891 263.827C218.891 261.425 216.233 256.075 214.742 254.396C213.664 253.186 211.405 253.107 209.923 253.766C208.264 254.505 206.738 257.419 204.789 258.817C201.831 260.933 195.796 264.748 192.188 266.461C189.343 267.809 184.638 266.481 183.127 269.094C181.616 271.708 183.717 279.509 183.132 282.148C182.807 283.605 178.352 284.132 179.617 284.929Z" fill="#E3AF9A"/>
<path fill-rule="evenodd" clip-rule="evenodd" d="M128.834 160.775C130.72 158.221 133.397 154.613 136.341 152.604C139.279 150.601 143.261 149.169 146.466 148.741C149.508 148.337 152.505 149.961 155.567 150.05C159.761 150.168 166.391 149.72 171.628 149.454C176.747 149.198 182.112 149.065 186.975 148.46C191.632 147.879 197.14 146.452 200.797 145.807C203.494 145.325 206.207 144.217 208.924 144.576C213.368 145.162 222.602 147.377 227.48 149.331C231.438 150.916 236.114 152.698 238.201 156.306C240.283 159.909 240.086 166.037 239.993 170.954C239.835 179.219 237.64 198.42 237.246 205.887C237.074 209.166 237.689 212.449 237.625 215.732C237.536 220.324 233.973 232.807 236.719 233.447C239.466 234.087 249.798 223.976 254.105 219.581C257.629 215.988 259.578 211.125 262.576 207.083C267.857 199.971 280.625 177.309 285.779 176.915C290.937 176.517 296.903 195.718 293.507 204.716C289.638 214.959 271.106 228.726 262.576 238.359C255.616 246.225 249.62 256.926 242.336 262.512C235.646 267.646 221.579 268.232 218.847 271.899C216.115 275.566 228.854 281.675 225.954 284.515C223.055 287.355 209.224 287.507 201.457 288.94C194.078 290.303 186.764 294.231 179.346 293.114C170.181 291.731 152.2 288.487 146.466 280.641C140.874 272.992 147.495 254.036 146.466 244.975C145.727 238.458 142.523 231.168 140.293 226.285C138.516 222.401 134.51 214.265 133.087 215.688C131.665 217.115 132.241 228.456 131.758 234.835C131.246 241.549 127.88 251.393 130.031 255.956C132.186 260.524 141.927 258.112 144.669 262.227C145.28 263.142 144.172 266.13 144.31 268.601C144.438 270.905 144.202 271.609 144.27 272.317C144.792 277.747 144.216 276.378 146.466 280.641C149.813 286.976 170.457 289.417 179.572 288.246C184.116 287.66 186.975 283.461 186.975 283.461C186.975 283.461 182.501 288.064 179.572 288.246C172.819 288.664 157.25 287.867 146.466 285.972C135.686 284.081 122.066 279.051 114.87 276.895C110.972 275.729 105.36 276.122 103.293 273.041C101.226 269.96 102.072 263.275 102.481 258.407C103.042 251.728 105.188 241.042 106.66 232.964C108.063 225.266 109.53 217.578 111.316 209.958C113.192 201.984 115.604 192.12 117.887 185.116C119.812 179.219 123.203 171.993 125.03 167.932C126.137 165.471 127.23 162.951 128.834 160.775Z" fill="#DED3D1"/>
<path fill-rule="evenodd" clip-rule="evenodd" d="M146.383 284.069C144.237 288.361 142.469 299.013 140.21 306.377C137.956 313.731 134.835 320.814 132.842 328.241C130.317 337.662 125.827 354.117 125.04 362.898C124.498 368.968 126.344 375.091 128.121 380.924C130.651 389.193 138.197 402.271 140.21 412.529C142.135 422.319 140.21 434.433 140.21 442.456V460.663C140.21 466.25 139.29 471.911 140.21 477.418C141.239 483.561 146.383 492.746 146.383 497.526C146.383 501.04 140.599 502.586 140.21 506.08C139.181 515.319 140.21 541.604 140.21 552.94V574.105C140.21 579.879 137.459 588.055 140.21 591.417C142.962 594.779 151.95 593.853 156.709 594.267C160.716 594.611 165.008 594.493 168.769 593.902C172.382 593.332 177.516 593.056 179.263 590.713C181.01 588.37 179.228 583.472 179.263 579.85C179.297 575.759 179.489 570.729 179.489 566.171C179.489 559.299 179.292 547.816 179.263 538.636C179.224 527.906 177.993 513.577 179.263 501.778C180.503 490.251 185.622 476.424 186.892 467.84C187.749 462.056 186.892 456.145 186.892 450.297C186.892 443.386 186.115 434.162 186.892 426.356C187.665 418.608 191.554 408.867 191.554 403.472C191.554 399.953 184.544 392.013 186.892 393.987C189.24 395.966 201.098 407.036 205.651 415.345C210.273 423.776 212.429 435.595 214.614 444.582C216.583 452.689 216.765 461.17 218.764 469.272C220.895 477.906 227.397 486.889 227.397 496.369C227.397 506.71 220.201 519.902 218.764 531.312C217.366 542.401 218.764 556.991 218.764 564.842C218.764 569.36 217.326 574.819 218.764 578.402C220.201 581.991 223.582 585.49 227.397 586.352C231.665 587.312 238.945 584.408 244.339 584.171C249.483 583.945 257.344 587.636 259.771 584.929C262.202 582.217 259.318 573.579 258.904 567.913C258.491 562.238 256.989 556.563 257.29 550.863C257.649 544.09 260.543 533.896 261.055 527.271C261.469 521.891 260.184 516.496 260.346 511.106C260.588 503.211 262.325 488.543 262.483 479.894C262.606 472.993 261.769 466.112 261.301 459.226C260.602 449.027 259.219 428.536 258.294 418.711C257.708 412.534 256.94 406.362 255.739 400.278C253.411 388.543 247.367 362.032 244.339 348.314C242.105 338.199 240.392 327.03 237.566 317.978C234.982 309.689 229.095 299.574 227.397 294.002C226.482 290.99 230.35 285.659 227.397 284.557C222.391 282.691 207.359 283.326 197.337 282.79C184.953 282.13 161.577 280.388 153.087 280.599C150.571 280.663 147.51 281.815 146.383 284.069Z" fill="#A5A58D"/>
<g opacity="0.18">
<path opacity="0.18" d="M136.461 380.492C140.925 381.392 149.859 383.199 155.594 383.189C160.762 383.179 166.875 381.486 170.852 380.432C173.86 379.635 177.596 377.779 179.466 376.854" stroke="white" stroke-width="2" stroke-miterlimit="1.5" stroke-linecap="round" stroke-linejoin="round"/>
<path opacity="0.18" d="M169.806 348.087C170.505 351.71 171.893 358.955 173.527 363.705C175.073 368.199 177.426 372.378 179.616 376.591C181.861 380.913 184.647 386.278 187.019 389.655C188.919 392.362 192.202 395.365 193.846 396.866" stroke="white" stroke-width="2" stroke-miterlimit="1.5" stroke-linecap="round" stroke-linejoin="round"/>
<path opacity="0.18" d="M146.435 298.738C150.708 298.97 159.243 299.433 165.651 299.418C172.405 299.403 180.733 298.679 186.945 298.65C192.276 298.63 199.752 299.186 202.932 299.27C203.961 299.3 205.339 299.211 206.023 299.167" stroke="white" stroke-width="2" stroke-miterlimit="1.5" stroke-linecap="round" stroke-linejoin="round"/>
<path opacity="0.18" d="M169.806 288.675V304.84" stroke="white" stroke-width="2" stroke-miterlimit="1.5" stroke-linecap="round" stroke-linejoin="round"/>
<path opacity="0.18" d="M140.316 312.046C144.732 312.509 153.562 313.439 157.864 314.074C160.655 314.488 164.307 315.403 166.133 315.861" stroke="white" stroke-width="2" stroke-miterlimit="1.5" stroke-linecap="round" stroke-linejoin="round"/>
<path opacity="0.18" d="M187.056 315.883C199.415 315.248 211.77 314.608 224.13 313.973" stroke="white" stroke-width="2" stroke-miterlimit="1.5" stroke-linecap="round" stroke-linejoin="round"/>
<path opacity="0.18" d="M254.018 471.876C245.685 473.638 229.008 477.162 227.394 478.275C225.784 479.392 243.095 477.015 244.336 478.555C245.576 480.096 234.851 485.899 234.851 487.528C234.851 489.158 245 487.238 244.336 488.331C243.666 489.424 230.155 492.072 230.844 494.08C231.538 496.083 242.835 498.938 248.48 500.366" stroke="white" stroke-width="2" stroke-miterlimit="1.5" stroke-linecap="round" stroke-linejoin="round"/>
<path opacity="0.18" d="M213.904 193.993C213.889 206.667 213.85 232.022 214.145 242.25C214.273 246.641 215.213 252.444 215.686 255.343" stroke="white" stroke-width="2" stroke-miterlimit="1.5" stroke-linecap="round" stroke-linejoin="round"/>
<path opacity="0.18" d="M176.348 476.886C169.024 479.214 154.371 483.876 153.293 486.224C152.21 488.572 169.078 488.606 169.851 490.978C170.624 493.351 160.691 498.209 157.929 500.468C156.34 501.773 151.619 503.338 153.293 504.539C155.276 505.967 167.7 506.562 169.851 509.028C172.002 511.494 168.133 516.727 166.199 519.34" stroke="white" stroke-width="2" stroke-miterlimit="1.5" stroke-linecap="round" stroke-linejoin="round"/>
</g>
</svg>
