<svg width="32" height="47" viewBox="0 0 32 47" fill="none" xmlns="http://www.w3.org/2000/svg">
<path d="M2 22.6C2 21.1148 2.59 19.6904 3.6402 18.6402C4.69041 17.59 6.11479 17 7.6 17H24.4C25.8852 17 27.3096 17.59 28.3598 18.6402C29.41 19.6904 30 21.1148 30 22.6V29.6H2V22.6Z" stroke="white" stroke-width="2" stroke-linecap="round" stroke-linejoin="round"/>
<path d="M26 37H20" stroke="white" stroke-width="2" stroke-linecap="round"/>
<path d="M16 29.5996H30V39.3996C30 40.8848 29.41 42.3092 28.3598 43.3594C27.3096 44.4096 25.8852 44.9996 24.4 44.9996H16V29.5996ZM16 29.5996H2V39.3996C2 40.8848 2.59 42.3092 3.6402 43.3594C4.69041 44.4096 6.11479 44.9996 7.6 44.9996H16V29.5996Z" stroke="white" stroke-width="2" stroke-linecap="round" stroke-linejoin="round"/>
<path d="M6.8999 39.4002L8.9999 37.3002M8.9999 37.3002L11.0999 35.2002M8.9999 37.3002L11.0999 39.4002M8.9999 37.3002L6.8999 35.2002" stroke="white" stroke-width="2" stroke-linecap="round"/>
</svg>
