<svg width="34" height="34" viewBox="0 0 34 34" fill="none" xmlns="http://www.w3.org/2000/svg">
<path d="M29.7999 12.2002H15.4C13.6326 12.2002 12.2 13.6329 12.2 15.4002V29.8002C12.2 31.5675 13.6326 33.0002 15.4 33.0002H29.7999C31.5673 33.0002 33 31.5675 33 29.8002V15.4002C33 13.6329 31.5673 12.2002 29.7999 12.2002Z" stroke="white" stroke-width="2" stroke-linecap="round" stroke-linejoin="round"/>
<path d="M5.8 21.8H4.2C3.35131 21.8 2.53737 21.4629 1.93726 20.8627C1.33714 20.2626 1 19.4487 1 18.6V4.2C1 3.35131 1.33714 2.53737 1.93726 1.93726C2.53737 1.33714 3.35131 1 4.2 1H18.6C19.4487 1 20.2626 1.33714 20.8627 1.93726C21.4629 2.53737 21.8 3.35131 21.8 4.2V5.8" stroke="white" stroke-width="2" stroke-linecap="round" stroke-linejoin="round"/>
</svg>
