<svg width="98" height="80" viewBox="0 0 98 80" fill="none" xmlns="http://www.w3.org/2000/svg">
<path fill-rule="evenodd" clip-rule="evenodd" d="M89.8725 7.63009C89.8725 4.34236 87.2073 1.67334 83.9176 1.67334H25.1961C21.9064 1.67334 19.2324 4.34236 19.2324 7.63009V42.8724C19.2324 46.1598 21.9064 48.8289 25.1961 48.8289H83.9176C87.2073 48.8289 89.8725 46.1598 89.8725 42.8724V7.63009Z" fill="white" stroke="#231F20" stroke-width="2" stroke-miterlimit="1.5" stroke-linecap="round" stroke-linejoin="round"/>
<path d="M48.9924 5.42529H60.1061" stroke="#231F20" stroke-width="2" stroke-miterlimit="1.5" stroke-linecap="round" stroke-linejoin="round"/>
<path d="M13.1343 48.829H95.9356" stroke="#231F20" stroke-width="2" stroke-miterlimit="1.5" stroke-linecap="round" stroke-linejoin="round"/>
<path fill-rule="evenodd" clip-rule="evenodd" d="M23.8033 27.9396C23.8033 26.4558 22.5971 25.2511 21.1153 25.2511H5.20437C3.71985 25.2511 2.51367 26.4558 2.51367 27.9396V57.3756C2.51367 58.8594 3.71985 60.0641 5.20437 60.0641H21.1153C22.5971 60.0641 23.8033 58.8594 23.8033 57.3756V27.9396Z" fill="white" stroke="#231F20" stroke-width="2" stroke-miterlimit="1.5" stroke-linecap="round" stroke-linejoin="round"/>
<path fill-rule="evenodd" clip-rule="evenodd" d="M67.2156 34.3637C67.2156 31.8235 65.1508 29.7612 62.6141 29.7612H35.3769C32.8356 29.7612 30.7708 31.8235 30.7708 34.3637V72.382C30.7708 74.9219 32.8356 76.9842 35.3769 76.9842H62.6141C65.1508 76.9842 67.2156 74.9219 67.2156 72.382V34.3637Z" fill="white" stroke="#231F20" stroke-width="2" stroke-miterlimit="1.5" stroke-linecap="round" stroke-linejoin="round"/>
<path d="M47.605 73.5828H50.3834" stroke="#231F20" stroke-width="2" stroke-miterlimit="1.5" stroke-linecap="round" stroke-linejoin="round"/>
<path d="M11.7698 56.5358H14.5482" stroke="#231F20" stroke-width="2" stroke-miterlimit="1.5" stroke-linecap="round" stroke-linejoin="round"/>
</svg>
