<svg width="82" height="52" viewBox="0 0 82 52" fill="none" xmlns="http://www.w3.org/2000/svg">
<path fill-rule="evenodd" clip-rule="evenodd" d="M75.5786 6.68808C75.5786 3.78546 73.2495 1.42938 70.38 1.42938H11.9484C9.08063 1.42938 6.75049 3.78546 6.75049 6.68808V40.0236C6.75049 42.9246 9.08063 45.2807 11.9484 45.2807H70.38C73.2495 45.2807 75.5786 42.9246 75.5786 40.0236V6.68808Z" stroke="#FDFFFD" stroke-miterlimit="1.5" stroke-linecap="round" stroke-linejoin="round"/>
<path d="M19.5353 24.9934L23.7374 24.9955L18.833 36.3641" stroke="white" stroke-miterlimit="1.5" stroke-linejoin="round"/>
<path d="M23.6593 24.9926L19.4572 24.9906L24.3616 13.622" stroke="white" stroke-miterlimit="1.5" stroke-linejoin="round"/>
<path d="M1.90161 50H80.4309" stroke="white" stroke-miterlimit="1.5" stroke-linecap="round" stroke-linejoin="round"/>
<path d="M14.4335 20.694C15.0643 20.694 15.6033 20.8514 16.0534 21.1606C16.5036 21.4699 16.8496 21.9065 17.0885 22.4705C17.3304 23.0344 17.4498 23.6955 17.4498 24.4595V25.3205H12.5472C12.5594 26.2118 12.7585 26.8909 13.1443 27.3699C13.5271 27.8429 14.0661 28.0793 14.7612 28.0793C15.2205 28.0793 15.6309 28.0308 15.9891 27.9277C16.3474 27.8307 16.718 27.6791 17.1008 27.4851V28.7585C16.7394 28.9525 16.375 29.0919 16.0106 29.1768C15.6462 29.2678 15.2113 29.3104 14.703 29.3104C14.0048 29.3104 13.3924 29.1525 12.8657 28.8251C12.339 28.5037 11.9286 28.0307 11.6347 27.4001C11.3437 26.7695 11.1968 25.9875 11.1968 25.0658C11.1968 24.1502 11.3315 23.3678 11.5979 22.7129C11.8643 22.0641 12.2379 21.5671 12.7248 21.2154C13.2087 20.8698 13.7782 20.694 14.4335 20.694ZM14.4274 21.8762C13.8945 21.8762 13.4658 22.0703 13.1443 22.4705C12.8197 22.8707 12.6299 23.4467 12.5748 24.1865H16.1269C16.1208 23.7317 16.0565 23.3314 15.934 22.9797C15.8146 22.6341 15.6278 22.3613 15.3828 22.1673C15.1348 21.9732 14.8163 21.8762 14.4274 21.8762Z" fill="white"/>
<path d="M27.5401 17.4259H26.2163V29.162H27.5401V17.4259Z" fill="white"/>
<path d="M32.6094 20.694C33.2371 20.694 33.7791 20.8514 34.2293 21.1606C34.6794 21.4699 35.0224 21.9065 35.2643 22.4705C35.5031 23.0344 35.6226 23.6955 35.6226 24.4595V25.3205H30.723C30.7353 26.2118 30.9343 26.8909 31.3171 27.3699C31.7029 27.8429 32.2419 28.0793 32.937 28.0793C33.3964 28.0793 33.8036 28.0308 34.1619 27.9277C34.5202 27.8307 34.8907 27.6791 35.2765 27.4851V28.7585C34.9152 28.9525 34.5508 29.0919 34.1864 29.1768C33.8189 29.2678 33.3841 29.3104 32.8788 29.3104C32.1775 29.3104 31.5652 29.1525 31.0385 28.8251C30.5148 28.5037 30.1045 28.0307 29.8105 27.4001C29.5196 26.7695 29.3726 25.9875 29.3726 25.0658C29.3726 24.1502 29.5042 23.3678 29.7707 22.7129C30.0371 22.0641 30.4137 21.5671 30.8975 21.2154C31.3844 20.8698 31.954 20.694 32.6094 20.694ZM32.6032 21.8762C32.0704 21.8762 31.6417 22.0703 31.3171 22.4705C30.9956 22.8707 30.8057 23.4467 30.7475 24.1865H34.2997C34.2966 23.7317 34.2323 23.3314 34.1098 22.9797C33.9873 22.6341 33.8036 22.3613 33.5556 22.1673C33.3106 21.9732 32.9921 21.8762 32.6032 21.8762Z" fill="white"/>
<path d="M40.319 29.3104C39.6545 29.3104 39.0727 29.1586 38.5735 28.8494C38.0775 28.5462 37.6916 28.0733 37.4191 27.4427C37.1465 26.8121 37.0088 26.0116 37.0088 25.0475C37.0088 24.0409 37.1558 23.2164 37.4467 22.5797C37.7406 21.937 38.1448 21.4639 38.6624 21.1547C39.1799 20.8515 39.774 20.694 40.4415 20.694C40.8366 20.694 41.204 20.7425 41.547 20.8335C41.8899 20.9244 42.1778 21.0333 42.4075 21.1728L42.0155 22.4038C41.7705 22.2886 41.5071 22.1915 41.2254 22.1066C40.9437 22.0217 40.6773 21.9793 40.4231 21.9793C39.9607 21.9793 39.578 22.0945 39.2717 22.331C38.9686 22.5614 38.742 22.9072 38.5889 23.3619C38.4358 23.8106 38.3592 24.3684 38.3592 25.0353C38.3592 25.6781 38.4327 26.2238 38.5858 26.6664C38.7359 27.1091 38.9594 27.4486 39.2534 27.679C39.5473 27.9155 39.9179 28.0307 40.3588 28.0307C40.7478 28.0307 41.0968 27.9762 41.4061 27.8791C41.7154 27.7761 42.0033 27.6489 42.2635 27.4913V28.8251C42.0124 28.9888 41.7307 29.1101 41.4245 29.189C41.1213 29.2678 40.7508 29.3104 40.319 29.3104Z" fill="white"/>
<path d="M47.2581 29.1588H45.9077V19.4691H42.9985V18.135H50.1611V19.4691H47.2581V29.1588Z" fill="white"/>
<path d="M58.9997 18.1351V25.2657C58.9997 26.0418 58.8619 26.7333 58.5832 27.3397C58.3076 27.9521 57.8881 28.4311 57.3277 28.7828C56.7704 29.1344 56.0661 29.3104 55.2179 29.3104C54.0175 29.3104 53.1019 28.9403 52.471 28.1945C51.8402 27.4547 51.5217 26.4664 51.5217 25.2355V18.1351H52.8721V25.1748C52.8721 26.1086 53.0742 26.806 53.4785 27.279C53.8827 27.752 54.486 27.9884 55.2852 27.9884C55.8364 27.9884 56.2865 27.8732 56.6356 27.6488C56.9847 27.4184 57.242 27.0971 57.4104 26.6726C57.5788 26.2543 57.6646 25.7569 57.6646 25.1748V18.1351H58.9997Z" fill="white"/>
<path d="M65.6701 29.1588L62.6814 19.6812H62.6293C62.6416 19.8813 62.6569 20.1481 62.6722 20.4755C62.6875 20.7969 62.6998 21.1487 62.709 21.5307C62.7212 21.9067 62.7274 22.2827 62.7274 22.6526V29.1588H61.4963V18.1351H63.4285L66.2672 27.1153H66.3132L69.2223 18.1351H71.1424V29.1588H69.844V22.5614C69.844 22.2279 69.8501 21.8823 69.8562 21.5245C69.8654 21.1607 69.8776 20.8213 69.8929 20.4939C69.9083 20.1725 69.9235 19.9055 69.9358 19.6933H69.8776L66.8154 29.1588H65.6701Z" fill="white"/>
</svg>
