<svg width="95" height="80" viewBox="0 0 95 80" fill="none" xmlns="http://www.w3.org/2000/svg">
<g clip-path="url(#clip0_238_76)">
<path fill-rule="evenodd" clip-rule="evenodd" d="M67.45 5.69842C67.45 3.57578 65.7267 1.85254 63.6041 1.85254H12.2592C10.1366 1.85254 8.41333 3.57578 8.41333 5.69842V38.506C8.41333 40.6286 10.1366 42.3519 12.2592 42.3519H63.6041C65.7267 42.3519 67.45 40.6286 67.45 38.506V5.69842Z" stroke="#231F20" stroke-width="2" stroke-miterlimit="1.5" stroke-linecap="round" stroke-linejoin="round"/>
<path d="M68.7934 66.3683C70.6896 66.3683 72.2267 64.8311 72.2267 62.935C72.2267 61.0388 70.6896 59.5017 68.7934 59.5017C66.8973 59.5017 65.3601 61.0388 65.3601 62.935C65.3601 64.8311 66.8973 66.3683 68.7934 66.3683Z" stroke="#231F20" stroke-width="2" stroke-miterlimit="1.5" stroke-linecap="round" stroke-linejoin="round"/>
<path d="M62.6807 77.7003V69.4365L68.7932 67.8199L75.0515 69.9259L75.0877 77.7003" stroke="#231F20" stroke-width="2" stroke-miterlimit="1.5" stroke-linecap="round" stroke-linejoin="round"/>
<path d="M23.6091 66.3683C25.5052 66.3683 27.0424 64.8311 27.0424 62.935C27.0424 61.0388 25.5052 59.5017 23.6091 59.5017C21.7129 59.5017 20.1758 61.0388 20.1758 62.935C20.1758 64.8311 21.7129 66.3683 23.6091 66.3683Z" stroke="#231F20" stroke-width="2" stroke-miterlimit="1.5" stroke-linecap="round" stroke-linejoin="round"/>
<path d="M17.4966 77.7003V69.4365L23.6091 67.8199L29.8674 69.9259L29.9036 77.7003" stroke="#231F20" stroke-width="2" stroke-miterlimit="1.5" stroke-linecap="round" stroke-linejoin="round"/>
<path d="M35.6704 52.4015C37.5665 52.4015 39.1036 50.8644 39.1036 48.9682C39.1036 47.072 37.5665 45.5349 35.6704 45.5349C33.7742 45.5349 32.2371 47.072 32.2371 48.9682C32.2371 50.8644 33.7742 52.4015 35.6704 52.4015Z" stroke="#231F20" stroke-width="2" stroke-miterlimit="1.5" stroke-linecap="round" stroke-linejoin="round"/>
<path d="M29.5579 63.7337V55.4698L35.6704 53.8533L41.9287 55.9593L41.9649 63.7337" stroke="#231F20" stroke-width="2" stroke-miterlimit="1.5" stroke-linecap="round" stroke-linejoin="round"/>
<path d="M87.0483 59.4735C88.9444 59.4735 90.4816 57.9364 90.4816 56.0402C90.4816 54.1441 88.9444 52.6069 87.0483 52.6069C85.1521 52.6069 83.615 54.1441 83.615 56.0402C83.615 57.9364 85.1521 59.4735 87.0483 59.4735Z" stroke="#231F20" stroke-width="2" stroke-miterlimit="1.5" stroke-linecap="round" stroke-linejoin="round"/>
<path d="M80.9358 70.8058V62.5419L87.0484 60.9254L93.3067 63.0314L93.3428 70.8058" stroke="#231F20" stroke-width="2" stroke-miterlimit="1.5" stroke-linecap="round" stroke-linejoin="round"/>
<path d="M75.8725 30.5466C77.7687 30.5466 79.3058 29.0095 79.3058 27.1133C79.3058 25.2172 77.7687 23.6801 75.8725 23.6801C73.9764 23.6801 72.4392 25.2172 72.4392 27.1133C72.4392 29.0095 73.9764 30.5466 75.8725 30.5466Z" stroke="#231F20" stroke-width="2" stroke-miterlimit="1.5" stroke-linecap="round" stroke-linejoin="round"/>
<path fill-rule="evenodd" clip-rule="evenodd" d="M69.76 50.7393V33.6148L75.8726 31.9983L82.1309 34.1043L82.2078 50.6211" fill="white"/>
<path d="M69.76 50.7393V33.6148L75.8726 31.9983L82.1309 34.1043L82.2078 50.6211" stroke="#231F20" stroke-width="2" stroke-miterlimit="1.5" stroke-linecap="round" stroke-linejoin="round"/>
<path d="M51.0051 52.3237C52.9012 52.3237 54.4383 50.7866 54.4383 48.8904C54.4383 46.9943 52.9012 45.4572 51.0051 45.4572C49.1089 45.4572 47.5718 46.9943 47.5718 48.8904C47.5718 50.7866 49.1089 52.3237 51.0051 52.3237Z" stroke="#231F20" stroke-width="2" stroke-miterlimit="1.5" stroke-linecap="round" stroke-linejoin="round"/>
<path d="M44.8926 63.6558V55.3919L51.0051 53.7754L57.2634 55.8814L57.2996 63.6558" stroke="#231F20" stroke-width="2" stroke-miterlimit="1.5" stroke-linecap="round" stroke-linejoin="round"/>
<path d="M8.32222 51.4C10.2184 51.4 11.7555 49.8629 11.7555 47.9667C11.7555 46.0706 10.2184 44.5334 8.32222 44.5334C6.42607 44.5334 4.88892 46.0706 4.88892 47.9667C4.88892 49.8629 6.42607 51.4 8.32222 51.4Z" stroke="#231F20" stroke-width="2" stroke-miterlimit="1.5" stroke-linecap="round" stroke-linejoin="round"/>
<path d="M2.20947 62.7322V54.4683L8.32204 52.8518L14.5803 54.9578L14.6165 62.7322" stroke="#231F20" stroke-width="2" stroke-miterlimit="1.5" stroke-linecap="round" stroke-linejoin="round"/>
</g>
<defs>
<clipPath id="clip0_238_76">
<rect width="95" height="80" fill="white"/>
</clipPath>
</defs>
</svg>
